Bungee_Layers_Rotated-Regular.ufo
<glyph name="dollar" format="1">
  <advance width="1010"/>
  <unicode hex="0024"/>
  <outline>
    <contour>
      <point x="592.0" y="241" type="curve" smooth="yes"/>
      <point x="613.0" y="391" type="line" smooth="yes"/>
      <point x="615.0" y="408"/>
      <point x="624.0" y="417"/>
      <point x="647.0" y="417" type="curve" smooth="yes"/>
      <point x="663.0" y="417"/>
      <point x="676.0" y="408"/>
      <point x="676.0" y="391" type="curve" smooth="yes"/>
      <point x="676.0" y="122" type="line" smooth="yes"/>
      <point x="676.0" y="97"/>
      <point x="687.0" y="86"/>
      <point x="712.0" y="86" type="curve" smooth="yes"/>
      <point x="829.0" y="86" type="line" smooth="yes"/>
      <point x="854.0" y="86"/>
      <point x="865.0" y="97"/>
      <point x="865.0" y="122" type="curve" smooth="yes"/>
      <point x="865.0" y="259" type="line"/>
      <point x="919.0" y="259" type="line" smooth="yes"/>
      <point x="944.0" y="259"/>
      <point x="955.0" y="270"/>
      <point x="955.0" y="295" type="curve" smooth="yes"/>
      <point x="955.0" y="440" type="line" smooth="yes"/>
      <point x="955.0" y="465"/>
      <point x="944.0" y="476"/>
      <point x="919.0" y="476" type="curve" smooth="yes"/>
      <point x="863.0" y="476" type="line"/>
      <point x="852.0" y="582"/>
      <point x="791.0" y="645"/>
      <point x="689.0" y="645" type="curve" smooth="yes"/>
      <point x="584.0" y="645" type="line" smooth="yes"/>
      <point x="472.0" y="645"/>
      <point x="432.0" y="583"/>
      <point x="418.0" y="489" type="curve" smooth="yes"/>
      <point x="398.0" y="340" type="line" smooth="yes"/>
      <point x="396.0" y="323"/>
      <point x="384.0" y="313"/>
      <point x="366.0" y="313" type="curve" smooth="yes"/>
      <point x="348.0" y="313"/>
      <point x="336.0" y="323"/>
      <point x="336.0" y="340" type="curve" smooth="yes"/>
      <point x="336.0" y="573" type="line" smooth="yes"/>
      <point x="336.0" y="598"/>
      <point x="325.0" y="609"/>
      <point x="300.0" y="609" type="curve" smooth="yes"/>
      <point x="181.0" y="609" type="line" smooth="yes"/>
      <point x="156.0" y="609"/>
      <point x="145.0" y="598"/>
      <point x="145.0" y="573" type="curve" smooth="yes"/>
      <point x="145.0" y="476" type="line"/>
      <point x="91.0" y="476" type="line" smooth="yes"/>
      <point x="66.0" y="476"/>
      <point x="55.0" y="465"/>
      <point x="55.0" y="440" type="curve" smooth="yes"/>
      <point x="55.0" y="295" type="line" smooth="yes"/>
      <point x="55.0" y="270"/>
      <point x="66.0" y="259"/>
      <point x="91.0" y="259" type="curve" smooth="yes"/>
      <point x="147.0" y="259" type="line"/>
      <point x="157.0" y="150"/>
      <point x="217.0" y="86"/>
      <point x="321.0" y="86" type="curve" smooth="yes"/>
      <point x="426.0" y="86" type="line" smooth="yes"/>
      <point x="538.0" y="86"/>
      <point x="578.0" y="147"/>
    </contour>
  </outline>
</glyph>
<glyph name="ampersand" format="1">
  <advance width="834"/>
  <unicode hex="0026"/>
  <outline>
    <contour>
      <point x="585.0" y="303" type="line" smooth="yes"/>
      <point x="585.0" y="271"/>
      <point x="571.0" y="265"/>
      <point x="555.0" y="265" type="curve" smooth="yes"/>
      <point x="524.0" y="265" type="line" smooth="yes"/>
      <point x="508.0" y="265"/>
      <point x="495.0" y="271"/>
      <point x="495.0" y="303" type="curve" smooth="yes"/>
      <point x="495.0" y="378" type="line" smooth="yes"/>
      <point x="495.0" y="403"/>
      <point x="484.0" y="414"/>
      <point x="459.0" y="414" type="curve" smooth="yes"/>
      <point x="356.0" y="414" type="line" smooth="yes"/>
      <point x="331.0" y="414"/>
      <point x="320.0" y="403"/>
      <point x="320.0" y="378" type="curve" smooth="yes"/>
      <point x="320.0" y="368" type="line" smooth="yes"/>
      <point x="320.0" y="336"/>
      <point x="306.0" y="330"/>
      <point x="290.0" y="330" type="curve" smooth="yes"/>
      <point x="269.0" y="330" type="line" smooth="yes"/>
      <point x="253.0" y="330"/>
      <point x="239.0" y="336"/>
      <point x="239.0" y="368" type="curve" smooth="yes"/>
      <point x="239.0" y="484" type="line" smooth="yes"/>
      <point x="239.0" y="509"/>
      <point x="228.0" y="520"/>
      <point x="203.0" y="520" type="curve" smooth="yes"/>
      <point x="88.0" y="520" type="line" smooth="yes"/>
      <point x="63.0" y="520"/>
      <point x="52.0" y="509"/>
      <point x="52.0" y="484" type="curve" smooth="yes"/>
      <point x="52.0" y="303" type="line" smooth="yes"/>
      <point x="52.0" y="167"/>
      <point x="117.0" y="111"/>
      <point x="205.0" y="111" type="curve" smooth="yes"/>
      <point x="253.0" y="111" type="line" smooth="yes"/>
      <point x="304.0" y="111"/>
      <point x="342.0" y="126"/>
      <point x="361.0" y="170" type="curve"/>
      <point x="368.0" y="98"/>
      <point x="422.0" y="44"/>
      <point x="516.0" y="44" type="curve" smooth="yes"/>
      <point x="596.0" y="44" type="line" smooth="yes"/>
      <point x="703.0" y="44"/>
      <point x="772.0" y="110"/>
      <point x="772.0" y="233" type="curve" smooth="yes"/>
      <point x="772.0" y="481" type="line" smooth="yes"/>
      <point x="772.0" y="597"/>
      <point x="703.0" y="660"/>
      <point x="596.0" y="660" type="curve" smooth="yes"/>
      <point x="551.0" y="660" type="line"/>
      <point x="551.0" y="683" type="line" smooth="yes"/>
      <point x="551.0" y="708"/>
      <point x="540.0" y="719"/>
      <point x="515.0" y="719" type="curve" smooth="yes"/>
      <point x="407.0" y="719" type="line" smooth="yes"/>
      <point x="381.0" y="719"/>
      <point x="371.0" y="708"/>
      <point x="371.0" y="683" type="curve" smooth="yes"/>
      <point x="371.0" y="499" type="line" smooth="yes"/>
      <point x="371.0" y="474"/>
      <point x="382.0" y="463"/>
      <point x="407.0" y="463" type="curve" smooth="yes"/>
      <point x="545.0" y="463" type="line" smooth="yes"/>
      <point x="572.0" y="463"/>
      <point x="585.0" y="454"/>
      <point x="585.0" y="425" type="curve" smooth="yes"/>
    </contour>
  </outline>
</glyph>
<glyph name="comma" format="1">
  <advance width="499"/>
  <unicode hex="002C"/>
  <outline>
    <contour>
      <point x="447.0" y="349" type="line" smooth="yes"/>
      <point x="447.0" y="439"/>
      <point x="398.0" y="497"/>
      <point x="296.0" y="497" type="curve" smooth="yes"/>
      <point x="108.0" y="497" type="line" smooth="yes"/>
      <point x="83.0" y="497"/>
      <point x="72.0" y="486"/>
      <point x="72.0" y="461" type="curve" smooth="yes"/>
      <point x="72.0" y="259" type="line" smooth="yes"/>
      <point x="72.0" y="234"/>
      <point x="83.0" y="223"/>
      <point x="108.0" y="223" type="curve" smooth="yes"/>
      <point x="256.0" y="223" type="line" smooth="yes"/>
      <point x="281.0" y="223"/>
      <point x="292.0" y="234"/>
      <point x="292.0" y="259" type="curve" smooth="yes"/>
      <point x="292.0" y="368" type="line"/>
      <point x="307.0" y="368" type="line" smooth="yes"/>
      <point x="325.0" y="368"/>
      <point x="335.0" y="359"/>
      <point x="335.0" y="341" type="curve" smooth="yes"/>
      <point x="335.0" y="272" type="line" smooth="yes"/>
      <point x="335.0" y="247"/>
      <point x="346.0" y="236"/>
      <point x="371.0" y="236" type="curve" smooth="yes"/>
      <point x="411.0" y="236" type="line" smooth="yes"/>
      <point x="437.0" y="236"/>
      <point x="447.0" y="247"/>
      <point x="447.0" y="272" type="curve" smooth="yes"/>
    </contour>
  </outline>
</glyph>
<glyph name="one" format="1">
  <advance width="872"/>
  <unicode hex="0031"/>
  <outline>
    <contour>
      <point x="792.0" y="623" type="line" smooth="yes"/>
      <point x="792.0" y="648"/>
      <point x="781.0" y="659"/>
      <point x="756.0" y="659" type="curve"/>
      <point x="635.0" y="659" type="line" smooth="yes"/>
      <point x="610.0" y="659"/>
      <point x="599.0" y="648"/>
      <point x="599.0" y="623" type="curve"/>
      <point x="599.0" y="489" type="line"/>
      <point x="108.0" y="489" type="line" smooth="yes"/>
      <point x="83.0" y="489"/>
      <point x="72.0" y="478"/>
      <point x="72.0" y="453" type="curve" smooth="yes"/>
      <point x="72.0" y="113" type="line" smooth="yes"/>
      <point x="72.0" y="88"/>
      <point x="83.0" y="77"/>
      <point x="108.0" y="77" type="curve" smooth="yes"/>
      <point x="229.0" y="77" type="line" smooth="yes"/>
      <point x="254.0" y="77"/>
      <point x="265.0" y="88"/>
      <point x="265.0" y="113" type="curve" smooth="yes"/>
      <point x="265.0" y="255" type="line"/>
      <point x="599.0" y="255" type="line"/>
      <point x="599.0" y="96" type="line" smooth="yes"/>
      <point x="599.0" y="71"/>
      <point x="610.0" y="60"/>
      <point x="635.0" y="60" type="curve"/>
      <point x="756.0" y="60" type="line"/>
      <point x="781.0" y="60"/>
      <point x="792.0" y="71"/>
      <point x="792.0" y="96" type="curve" smooth="yes"/>
    </contour>
  </outline>
</glyph>
<glyph name="three" format="1">
  <advance width="864"/>
  <unicode hex="0033"/>
  <outline>
    <contour>
      <point x="603.0" y="96" type="line" smooth="yes"/>
      <point x="603.0" y="71"/>
      <point x="614.0" y="60"/>
      <point x="639.0" y="60" type="curve" smooth="yes"/>
      <point x="756.0" y="60" type="line" smooth="yes"/>
      <point x="781.0" y="60"/>
      <point x="792.0" y="71"/>
      <point x="792.0" y="96" type="curve" smooth="yes"/>
      <point x="792.0" y="468" type="line" smooth="yes"/>
      <point x="792.0" y="596"/>
      <point x="729.0" y="662"/>
      <point x="626.0" y="662" type="curve" smooth="yes"/>
      <point x="526.0" y="662" type="line" smooth="yes"/>
      <point x="438.0" y="662"/>
      <point x="392.0" y="631"/>
      <point x="381.0" y="536" type="curve"/>
      <point x="362.0" y="580"/>
      <point x="324.0" y="595"/>
      <point x="273.0" y="595" type="curve" smooth="yes"/>
      <point x="215.0" y="595" type="line" smooth="yes"/>
      <point x="127.0" y="595"/>
      <point x="72.0" y="542"/>
      <point x="72.0" y="431" type="curve" smooth="yes"/>
      <point x="72.0" y="96" type="line" smooth="yes"/>
      <point x="72.0" y="71"/>
      <point x="83.0" y="60"/>
      <point x="108.0" y="60" type="curve" smooth="yes"/>
      <point x="227.0" y="60" type="line" smooth="yes"/>
      <point x="252.0" y="60"/>
      <point x="263.0" y="71"/>
      <point x="263.0" y="96" type="curve" smooth="yes"/>
      <point x="263.0" y="338" type="line" smooth="yes"/>
      <point x="263.0" y="370"/>
      <point x="277.0" y="376"/>
      <point x="293.0" y="376" type="curve" smooth="yes"/>
      <point x="308.0" y="376" type="line" smooth="yes"/>
      <point x="324.0" y="376"/>
      <point x="338.0" y="370"/>
      <point x="338.0" y="338" type="curve" smooth="yes"/>
      <point x="338.0" y="177" type="line" smooth="yes"/>
      <point x="338.0" y="152"/>
      <point x="349.0" y="141"/>
      <point x="374.0" y="141" type="curve" smooth="yes"/>
      <point x="481.0" y="141" type="line" smooth="yes"/>
      <point x="506.0" y="141"/>
      <point x="517.0" y="152"/>
      <point x="517.0" y="177" type="curve" smooth="yes"/>
      <point x="517.0" y="403" type="line" smooth="yes"/>
      <point x="517.0" y="435"/>
      <point x="530.0" y="441"/>
      <point x="546.0" y="441" type="curve" smooth="yes"/>
      <point x="573.0" y="441" type="line" smooth="yes"/>
      <point x="589.0" y="441"/>
      <point x="603.0" y="435"/>
      <point x="603.0" y="403" type="curve" smooth="yes"/>
    </contour>
  </outline>
</glyph>
<glyph name="A" format="1">
  <advance width="849"/>
  <unicode hex="0041"/>
  <outline>
    <contour>
      <point x="746.0" y="59" type="line" smooth="yes"/>
      <point x="771.0" y="59"/>
      <point x="782.0" y="69"/>
      <point x="782.0" y="95" type="curve" smooth="yes"/>
      <point x="782.0" y="242" type="line" smooth="yes"/>
      <point x="782.0" y="267"/>
      <point x="771.0" y="278"/>
      <point x="746.0" y="278" type="curve" smooth="yes"/>
      <point x="606.0" y="278" type="line"/>
      <point x="606.0" y="435" type="line"/>
      <point x="746.0" y="435" type="line" smooth="yes"/>
      <point x="771.0" y="435"/>
      <point x="782.0" y="449"/>
      <point x="782.0" y="474" type="curve" smooth="yes"/>
      <point x="782.0" y="625" type="line" smooth="yes"/>
      <point x="782.0" y="650"/>
      <point x="771.0" y="661"/>
      <point x="746.0" y="661" type="curve" smooth="yes"/>
      <point x="482.0" y="661" type="line" smooth="yes"/>
      <point x="413.0" y="661"/>
      <point x="398.0" y="651"/>
      <point x="322.0" y="622" type="curve"/>
      <point x="95.0" y="535" type="line" smooth="yes"/>
      <point x="70.0" y="526"/>
      <point x="62.0" y="511"/>
      <point x="62.0" y="485" type="curve" smooth="yes"/>
      <point x="62.0" y="226" type="line"/>
      <point x="62.0" y="200"/>
      <point x="70.0" y="184"/>
      <point x="95.0" y="175" type="curve" smooth="yes"/>
      <point x="322.0" y="98" type="line"/>
      <point x="398.0" y="69"/>
      <point x="413.0" y="59"/>
      <point x="482.0" y="59" type="curve" smooth="yes"/>
    </contour>
    <contour>
      <point x="272.0" y="335" type="line"/>
      <point x="259.0" y="341"/>
      <point x="255.0" y="343"/>
      <point x="255.0" y="354" type="curve" smooth="yes"/>
      <point x="255.0" y="359" type="line" smooth="yes"/>
      <point x="255.0" y="370"/>
      <point x="259.0" y="372"/>
      <point x="272.0" y="378" type="curve"/>
      <point x="424.0" y="425" type="line"/>
      <point x="424.0" y="288" type="line"/>
    </contour>
  </outline>
</glyph>
<glyph name="G" format="1">
  <advance width="859"/>
  <unicode hex="0047"/>
  <unicode hex="FF27"/>
  <outline>
    <contour>
      <point x="787.0" y="624" type="line" smooth="yes"/>
      <point x="787.0" y="649"/>
      <point x="776.0" y="660"/>
      <point x="751.0" y="660" type="curve" smooth="yes"/>
      <point x="442.0" y="660" type="line" smooth="yes"/>
      <point x="417.0" y="660"/>
      <point x="406.0" y="649"/>
      <point x="406.0" y="624" type="curve" smooth="yes"/>
      <point x="406.0" y="469" type="line" smooth="yes"/>
      <point x="406.0" y="444"/>
      <point x="417.0" y="433"/>
      <point x="442.0" y="433" type="curve" smooth="yes"/>
      <point x="598.0" y="433" type="line"/>
      <point x="598.0" y="328" type="line" smooth="yes"/>
      <point x="598.0" y="288"/>
      <point x="576.0" y="282"/>
      <point x="549.0" y="282" type="curve" smooth="yes"/>
      <point x="310.0" y="282" type="line" smooth="yes"/>
      <point x="284.0" y="282"/>
      <point x="260.0" y="291"/>
      <point x="260.0" y="343" type="curve" smooth="yes"/>
      <point x="260.0" y="559" type="line" smooth="yes"/>
      <point x="260.0" y="584"/>
      <point x="249.0" y="595"/>
      <point x="224.0" y="595" type="curve" smooth="yes"/>
      <point x="103.0" y="595" type="line" smooth="yes"/>
      <point x="78.0" y="595"/>
      <point x="67.0" y="584"/>
      <point x="67.0" y="559" type="curve" smooth="yes"/>
      <point x="67.0" y="301" type="line" smooth="yes"/>
      <point x="67.0" y="112"/>
      <point x="150.0" y="55"/>
      <point x="271.0" y="55" type="curve" smooth="yes"/>
      <point x="583.0" y="55" type="line" smooth="yes"/>
      <point x="704.0" y="55"/>
      <point x="787.0" y="112"/>
      <point x="787.0" y="301" type="curve" smooth="yes"/>
    </contour>
    <contour>
      <point x="40.0" y="351.0" type="move" name="top"/>
    </contour>
    <contour>
      <point x="787.0" y="351.0" type="move" name="bottom"/>
    </contour>
  </outline>
</glyph>
<glyph name="K" format="1">
  <advance width="854"/>
  <unicode hex="004B"/>
  <outline>
    <contour>
      <point x="787.0" y="252" type="line" smooth="yes"/>
      <point x="787.0" y="277"/>
      <point x="776.0" y="288"/>
      <point x="751.0" y="288" type="curve" smooth="yes"/>
      <point x="522.0" y="288" type="line"/>
      <point x="522.0" y="403" type="line" smooth="yes"/>
      <point x="522.0" y="424"/>
      <point x="534.0" y="435"/>
      <point x="556.0" y="435" type="curve" smooth="yes"/>
      <point x="751.0" y="435" type="line" smooth="yes"/>
      <point x="776.0" y="435"/>
      <point x="787.0" y="446"/>
      <point x="787.0" y="471" type="curve" smooth="yes"/>
      <point x="787.0" y="625" type="line" smooth="yes"/>
      <point x="787.0" y="650"/>
      <point x="776.0" y="661"/>
      <point x="751.0" y="661" type="curve" smooth="yes"/>
      <point x="469.0" y="661" type="line" smooth="yes"/>
      <point x="389.0" y="661"/>
      <point x="337.0" y="613"/>
      <point x="333.0" y="538" type="curve"/>
      <point x="100.0" y="640" type="line" smooth="yes"/>
      <point x="79.0" y="649"/>
      <point x="67.0" y="641"/>
      <point x="67.0" y="618" type="curve" smooth="yes"/>
      <point x="67.0" y="464" type="line" smooth="yes"/>
      <point x="67.0" y="438"/>
      <point x="76.0" y="424"/>
      <point x="100.0" y="414" type="curve" smooth="yes"/>
      <point x="333.0" y="311" type="line"/>
      <point x="333.0" y="288" type="line"/>
      <point x="103.0" y="288" type="line" smooth="yes"/>
      <point x="78.0" y="288"/>
      <point x="67.0" y="277"/>
      <point x="67.0" y="252" type="curve" smooth="yes"/>
      <point x="67.0" y="97" type="line" smooth="yes"/>
      <point x="67.0" y="72"/>
      <point x="78.0" y="61"/>
      <point x="103.0" y="61" type="curve"/>
      <point x="751.0" y="61" type="line"/>
      <point x="776.0" y="61"/>
      <point x="787.0" y="72"/>
      <point x="787.0" y="97" type="curve" smooth="yes"/>
    </contour>
  </outline>
</glyph>
<glyph name="Q" format="1">
  <advance width="934"/>
  <unicode hex="0051"/>
  <outline>
    <contour>
      <point x="572.0" y="283" type="curve"/>
      <point x="299.0" y="283" type="line" smooth="yes"/>
      <point x="273.0" y="283"/>
      <point x="253.0" y="294"/>
      <point x="253.0" y="360" type="curve" smooth="yes"/>
      <point x="253.0" y="427"/>
      <point x="273.0" y="438"/>
      <point x="299.0" y="438" type="curve" smooth="yes"/>
      <point x="572.0" y="438" type="line" smooth="yes"/>
      <point x="599.0" y="438"/>
      <point x="619.0" y="427"/>
      <point x="619.0" y="360" type="curve" smooth="yes"/>
      <point x="619.0" y="294"/>
      <point x="599.0" y="283"/>
    </contour>
    <contour>
      <point x="846.0" y="246" type="line" smooth="yes"/>
      <point x="871.0" y="246"/>
      <point x="882.0" y="257"/>
      <point x="882.0" y="282" type="curve" smooth="yes"/>
      <point x="882.0" y="436" type="line" smooth="yes"/>
      <point x="882.0" y="461"/>
      <point x="871.0" y="472"/>
      <point x="846.0" y="472" type="curve" smooth="yes"/>
      <point x="791.0" y="472" type="line"/>
      <point x="768.0" y="624"/>
      <point x="695.0" y="664"/>
      <point x="594.0" y="664" type="curve" smooth="yes"/>
      <point x="262.0" y="664" type="line" smooth="yes"/>
      <point x="140.0" y="664"/>
      <point x="57.0" y="605"/>
      <point x="57.0" y="360" type="curve" smooth="yes"/>
      <point x="57.0" y="115"/>
      <point x="140.0" y="56"/>
      <point x="262.0" y="56" type="curve" smooth="yes"/>
      <point x="594.0" y="56" type="line" smooth="yes"/>
      <point x="694.0" y="56"/>
      <point x="767.0" y="96"/>
      <point x="790.0" y="246" type="curve"/>
    </contour>
  </outline>
</glyph>
<glyph name="R" format="1">
  <advance width="859"/>
  <unicode hex="0052"/>
  <unicode hex="FF32"/>
  <outline>
    <contour>
      <point x="792.0" y="250" type="line" smooth="yes"/>
      <point x="792.0" y="275"/>
      <point x="781.0" y="286"/>
      <point x="756.0" y="286" type="curve" smooth="yes"/>
      <point x="560.0" y="286" type="line"/>
      <point x="560.0" y="405" type="line" smooth="yes"/>
      <point x="560.0" y="433"/>
      <point x="573.0" y="443"/>
      <point x="603.0" y="443" type="curve" smooth="yes"/>
      <point x="756.0" y="443" type="line" smooth="yes"/>
      <point x="781.0" y="443"/>
      <point x="792.0" y="454"/>
      <point x="792.0" y="479" type="curve" smooth="yes"/>
      <point x="792.0" y="634" type="line" smooth="yes"/>
      <point x="792.0" y="659"/>
      <point x="781.0" y="670"/>
      <point x="756.0" y="670" type="curve" smooth="yes"/>
      <point x="544.0" y="670" type="line" smooth="yes"/>
      <point x="460.0" y="670"/>
      <point x="407.0" y="620"/>
      <point x="399.0" y="559" type="curve"/>
      <point x="381.0" y="601"/>
      <point x="341.0" y="615"/>
      <point x="285.0" y="615" type="curve" smooth="yes"/>
      <point x="239.0" y="615" type="line" smooth="yes"/>
      <point x="140.0" y="615"/>
      <point x="72.0" y="568"/>
      <point x="72.0" y="418" type="curve" smooth="yes"/>
      <point x="72.0" y="96" type="line" smooth="yes"/>
      <point x="72.0" y="71"/>
      <point x="83.0" y="60"/>
      <point x="108.0" y="60" type="curve" smooth="yes"/>
      <point x="756.0" y="60" type="line" smooth="yes"/>
      <point x="781.0" y="60"/>
      <point x="792.0" y="71"/>
      <point x="792.0" y="96" type="curve" smooth="yes"/>
    </contour>
    <contour>
      <point x="252" y="286" type="line"/>
      <point x="252" y="350" type="line" smooth="yes"/>
      <point x="252" y="385"/>
      <point x="272" y="394"/>
      <point x="299" y="394" type="curve" smooth="yes"/>
      <point x="333" y="394" type="line" smooth="yes"/>
      <point x="360" y="394"/>
      <point x="380" y="385"/>
      <point x="380" y="350" type="curve" smooth="yes"/>
      <point x="380" y="286" type="line"/>
    </contour>
  </outline>
</glyph>
<glyph name="S" format="1">
  <advance width="864"/>
  <unicode hex="0053"/>
  <unicode hex="FF33"/>
  <outline>
    <contour>
      <point x="792.0" y="454" type="line" smooth="yes"/>
      <point x="792.0" y="583"/>
      <point x="730.0" y="661"/>
      <point x="616.0" y="661" type="curve" smooth="yes"/>
      <point x="511.0" y="661" type="line" smooth="yes"/>
      <point x="399.0" y="661"/>
      <point x="359.0" y="599"/>
      <point x="345.0" y="505" type="curve" smooth="yes"/>
      <point x="325.0" y="314" type="line" smooth="yes"/>
      <point x="323.0" y="297"/>
      <point x="311.0" y="287"/>
      <point x="293.0" y="287" type="curve" smooth="yes"/>
      <point x="275.0" y="287"/>
      <point x="263.0" y="297"/>
      <point x="263.0" y="314" type="curve" smooth="yes"/>
      <point x="263.0" y="599" type="line" smooth="yes"/>
      <point x="263.0" y="624"/>
      <point x="252.0" y="635"/>
      <point x="227.0" y="635" type="curve" smooth="yes"/>
      <point x="108.0" y="635" type="line" smooth="yes"/>
      <point x="83.0" y="635"/>
      <point x="72.0" y="624"/>
      <point x="72.0" y="599" type="curve" smooth="yes"/>
      <point x="72.0" y="267" type="line" smooth="yes"/>
      <point x="72.0" y="137"/>
      <point x="134.0" y="60"/>
      <point x="248.0" y="60" type="curve" smooth="yes"/>
      <point x="353.0" y="60" type="line" smooth="yes"/>
      <point x="465.0" y="60"/>
      <point x="505.0" y="121"/>
      <point x="519.0" y="215" type="curve" smooth="yes"/>
      <point x="540.0" y="407" type="line" smooth="yes"/>
      <point x="542.0" y="424"/>
      <point x="551.0" y="433"/>
      <point x="574.0" y="433" type="curve" smooth="yes"/>
      <point x="590.0" y="433"/>
      <point x="603.0" y="424"/>
      <point x="603.0" y="407" type="curve" smooth="yes"/>
      <point x="603.0" y="96" type="line" smooth="yes"/>
      <point x="603.0" y="71"/>
      <point x="614.0" y="60"/>
      <point x="639.0" y="60" type="curve" smooth="yes"/>
      <point x="756.0" y="60" type="line" smooth="yes"/>
      <point x="781.0" y="60"/>
      <point x="792.0" y="71"/>
      <point x="792.0" y="96" type="curve" smooth="yes"/>
    </contour>
  </outline>
</glyph>
<glyph name="V" format="1">
  <advance width="849"/>
  <unicode hex="0056"/>
  <unicode hex="FF36"/>
  <outline>
    <contour>
      <point x="787.0" y="487" type="line" smooth="yes"/>
      <point x="787.0" y="517"/>
      <point x="779.0" y="531"/>
      <point x="754.0" y="541" type="curve" smooth="yes"/>
      <point x="509.0" y="639" type="line" smooth="yes"/>
      <point x="449.0" y="663"/>
      <point x="430.0" y="661"/>
      <point x="367.0" y="661" type="curve" smooth="yes"/>
      <point x="103.0" y="661" type="line" smooth="yes"/>
      <point x="78.0" y="661"/>
      <point x="67.0" y="651"/>
      <point x="67.0" y="625" type="curve" smooth="yes"/>
      <point x="67.0" y="476" type="line" smooth="yes"/>
      <point x="67.0" y="451"/>
      <point x="78.0" y="440"/>
      <point x="103.0" y="440" type="curve" smooth="yes"/>
      <point x="378.0" y="440" type="line" smooth="yes"/>
      <point x="392.0" y="440"/>
      <point x="404.0" y="438"/>
      <point x="419.0" y="432" type="curve" smooth="yes"/>
      <point x="560.0" y="389" type="line" smooth="yes"/>
      <point x="573.0" y="384"/>
      <point x="577.0" y="381"/>
      <point x="577.0" y="370" type="curve" smooth="yes"/>
      <point x="577.0" y="355" type="line" smooth="yes"/>
      <point x="577.0" y="344"/>
      <point x="573.0" y="341"/>
      <point x="560.0" y="336" type="curve" smooth="yes"/>
      <point x="420.0" y="293" type="line" smooth="yes"/>
      <point x="405.0" y="287"/>
      <point x="393.0" y="285"/>
      <point x="379.0" y="285" type="curve" smooth="yes"/>
      <point x="103.0" y="285" type="line" smooth="yes"/>
      <point x="78.0" y="285"/>
      <point x="67.0" y="271"/>
      <point x="67.0" y="246" type="curve" smooth="yes"/>
      <point x="67.0" y="95" type="line" smooth="yes"/>
      <point x="67.0" y="70"/>
      <point x="78.0" y="59"/>
      <point x="103.0" y="59" type="curve" smooth="yes"/>
      <point x="367.0" y="59" type="line" smooth="yes"/>
      <point x="430.0" y="59"/>
      <point x="449.0" y="67"/>
      <point x="509.0" y="91" type="curve" smooth="yes"/>
      <point x="754.0" y="179" type="line" smooth="yes"/>
      <point x="779.0" y="189"/>
      <point x="787.0" y="204"/>
      <point x="787.0" y="234" type="curve" smooth="yes"/>
    </contour>
  </outline>
</glyph>
<glyph name="X" format="1">
  <advance width="854"/>
  <unicode hex="0058"/>
  <outline>
    <contour>
      <point x="751.0" y="284" type="curve" smooth="yes"/>
      <point x="652.0" y="284" type="line" smooth="yes"/>
      <point x="638.0" y="284"/>
      <point x="624.0" y="285"/>
      <point x="610.0" y="293" type="curve" smooth="yes"/>
      <point x="547.0" y="330" type="line" smooth="yes"/>
      <point x="535.0" y="337"/>
      <point x="530.0" y="343"/>
      <point x="530.0" y="354" type="curve" smooth="yes"/>
      <point x="530.0" y="368" type="line" smooth="yes"/>
      <point x="530.0" y="379"/>
      <point x="534.0" y="385"/>
      <point x="547.0" y="392" type="curve" smooth="yes"/>
      <point x="610.0" y="427" type="line" smooth="yes"/>
      <point x="625.0" y="435"/>
      <point x="638.0" y="436"/>
      <point x="652.0" y="436" type="curve" smooth="yes"/>
      <point x="751.0" y="436" type="line" smooth="yes"/>
      <point x="776.0" y="436"/>
      <point x="787.0" y="447"/>
      <point x="787.0" y="472" type="curve" smooth="yes"/>
      <point x="787.0" y="624" type="line" smooth="yes"/>
      <point x="787.0" y="649"/>
      <point x="776.0" y="660"/>
      <point x="751.0" y="660" type="curve" smooth="yes"/>
      <point x="644.0" y="660" type="line" smooth="yes"/>
      <point x="582.0" y="660"/>
      <point x="564.0" y="648"/>
      <point x="521.0" y="622" type="curve" smooth="yes"/>
      <point x="413.0" y="556" type="line"/>
      <point x="303.0" y="622" type="line" smooth="yes"/>
      <point x="260.0" y="648"/>
      <point x="242.0" y="660"/>
      <point x="180.0" y="660" type="curve" smooth="yes"/>
      <point x="103.0" y="660" type="line" smooth="yes"/>
      <point x="78.0" y="660"/>
      <point x="67.0" y="649"/>
      <point x="67.0" y="624" type="curve" smooth="yes"/>
      <point x="67.0" y="472" type="line" smooth="yes"/>
      <point x="67.0" y="447"/>
      <point x="78.0" y="436"/>
      <point x="103.0" y="436" type="curve" smooth="yes"/>
      <point x="172.0" y="436" type="line" smooth="yes"/>
      <point x="186.0" y="436"/>
      <point x="200.0" y="435"/>
      <point x="214.0" y="427" type="curve" smooth="yes"/>
      <point x="277.0" y="391" type="line" smooth="yes"/>
      <point x="289.0" y="384"/>
      <point x="294.0" y="378"/>
      <point x="294.0" y="367" type="curve" smooth="yes"/>
      <point x="294.0" y="355" type="line" smooth="yes"/>
      <point x="294.0" y="344"/>
      <point x="288.0" y="337"/>
      <point x="277.0" y="331" type="curve" smooth="yes"/>
      <point x="214.0" y="295" type="line" smooth="yes"/>
      <point x="201.0" y="287"/>
      <point x="186.0" y="286"/>
      <point x="172.0" y="286" type="curve" smooth="yes"/>
      <point x="103.0" y="286" type="line" smooth="yes"/>
      <point x="78.0" y="286"/>
      <point x="67.0" y="275"/>
      <point x="67.0" y="250" type="curve" smooth="yes"/>
      <point x="67.0" y="96" type="line" smooth="yes"/>
      <point x="67.0" y="71"/>
      <point x="78.0" y="60"/>
      <point x="103.0" y="60" type="curve" smooth="yes"/>
      <point x="180.0" y="60" type="line" smooth="yes"/>
      <point x="242.0" y="60"/>
      <point x="260.0" y="72"/>
      <point x="303.0" y="98" type="curve" smooth="yes"/>
      <point x="412.0" y="164" type="line"/>
      <point x="521.0" y="98" type="line" smooth="yes"/>
      <point x="564.0" y="72"/>
      <point x="582.0" y="60"/>
      <point x="644.0" y="60" type="curve" smooth="yes"/>
      <point x="751.0" y="60" type="line" smooth="yes"/>
      <point x="776.0" y="60"/>
      <point x="787.0" y="71"/>
      <point x="787.0" y="96" type="curve" smooth="yes"/>
      <point x="787.0" y="248" type="line" smooth="yes"/>
      <point x="787.0" y="273"/>
      <point x="776.0" y="284"/>
    </contour>
    <contour>
      <point x="40.0" y="368.0" type="move" name="top"/>
    </contour>
    <contour>
      <point x="787.0" y="368.0" type="move" name="bottom"/>
    </contour>
  </outline>
</glyph>
<glyph name="Y" format="1">
  <advance width="842"/>
  <unicode hex="0059"/>
  <outline>
    <contour>
      <point x="418.0" y="97" type="curve" smooth="yes"/>
      <point x="622.0" y="243" type="line"/>
      <point x="751.0" y="243" type="line" smooth="yes"/>
      <point x="776.0" y="243"/>
      <point x="787.0" y="253"/>
      <point x="787.0" y="279" type="curve" smooth="yes"/>
      <point x="787.0" y="441" type="line" smooth="yes"/>
      <point x="787.0" y="466"/>
      <point x="776.0" y="477"/>
      <point x="751.0" y="477" type="curve" smooth="yes"/>
      <point x="623.0" y="477" type="line"/>
      <point x="418.0" y="623" type="line" smooth="yes"/>
      <point x="377.0" y="653"/>
      <point x="347.0" y="661"/>
      <point x="295.0" y="661" type="curve" smooth="yes"/>
      <point x="103.0" y="661" type="line" smooth="yes"/>
      <point x="78.0" y="661"/>
      <point x="67.0" y="650"/>
      <point x="67.0" y="625" type="curve" smooth="yes"/>
      <point x="67.0" y="476" type="line" smooth="yes"/>
      <point x="67.0" y="451"/>
      <point x="78.0" y="440"/>
      <point x="103.0" y="440" type="curve" smooth="yes"/>
      <point x="267.0" y="440" type="line" smooth="yes"/>
      <point x="281.0" y="440"/>
      <point x="295.0" y="440"/>
      <point x="309.0" y="431" type="curve" smooth="yes"/>
      <point x="381.0" y="391" type="line" smooth="yes"/>
      <point x="393.0" y="384"/>
      <point x="398.0" y="378"/>
      <point x="398.0" y="367" type="curve"/>
      <point x="398.0" y="357" type="line" smooth="yes"/>
      <point x="398.0" y="346"/>
      <point x="393.0" y="340"/>
      <point x="381.0" y="333" type="curve" smooth="yes"/>
      <point x="309.0" y="294" type="line" smooth="yes"/>
      <point x="295.0" y="285"/>
      <point x="281.0" y="285"/>
      <point x="267.0" y="285" type="curve" smooth="yes"/>
      <point x="103.0" y="285" type="line" smooth="yes"/>
      <point x="78.0" y="285"/>
      <point x="67.0" y="274"/>
      <point x="67.0" y="249" type="curve" smooth="yes"/>
      <point x="67.0" y="95" type="line" smooth="yes"/>
      <point x="67.0" y="70"/>
      <point x="78.0" y="59"/>
      <point x="103.0" y="59" type="curve" smooth="yes"/>
      <point x="295.0" y="59" type="line" smooth="yes"/>
      <point x="347.0" y="59"/>
      <point x="377.0" y="66"/>
    </contour>
    <contour>
      <point x="40.0" y="212.0" type="move" name="top"/>
    </contour>
    <contour>
      <point x="40.0" y="212.0" type="move" name="top"/>
    </contour>
    <contour>
      <point x="787.0" y="212.0" type="move" name="bottom"/>
    </contour>
    <contour>
      <point x="787.0" y="212.0" type="move" name="bottom"/>
    </contour>
  </outline>
</glyph>
<glyph name="bracketleft" format="1">
  <advance width="429"/>
  <unicode hex="005B"/>
  <outline>
    <contour>
      <point x="276.0" y="610" type="line"/>
      <point x="348.0" y="610" type="line" smooth="yes"/>
      <point x="373.0" y="610"/>
      <point x="384.0" y="621"/>
      <point x="384.0" y="646" type="curve" smooth="yes"/>
      <point x="384.0" y="765" type="line" smooth="yes"/>
      <point x="384.0" y="790"/>
      <point x="373.0" y="801"/>
      <point x="348.0" y="801" type="curve" smooth="yes"/>
      <point x="84.0" y="801" type="line" smooth="yes"/>
      <point x="59.0" y="801"/>
      <point x="48.0" y="790"/>
      <point x="48.0" y="765" type="curve" smooth="yes"/>
      <point x="48.0" y="-44" type="line" smooth="yes"/>
      <point x="48.0" y="-69"/>
      <point x="59.0" y="-80"/>
      <point x="84.0" y="-80" type="curve" smooth="yes"/>
      <point x="348.0" y="-80" type="line" smooth="yes"/>
      <point x="373.0" y="-80"/>
      <point x="384.0" y="-69"/>
      <point x="384.0" y="-44" type="curve" smooth="yes"/>
      <point x="384.0" y="78" type="line" smooth="yes"/>
      <point x="384.0" y="103"/>
      <point x="373.0" y="114"/>
      <point x="348.0" y="114" type="curve" smooth="yes"/>
      <point x="276.0" y="114" type="line"/>
    </contour>
  </outline>
</glyph>
<glyph name="braceright" format="1">
  <advance width="455"/>
  <unicode hex="007D"/>
  <outline>
    <contour>
      <point x="143.0" y="560" type="curve"/>
      <point x="143.0" y="445" type="line"/>
      <point x="143.0" y="405"/>
      <point x="153.0" y="389"/>
      <point x="188.0" y="383" type="curve" smooth="yes"/>
      <point x="221.0" y="377" type="line" smooth="yes"/>
      <point x="231.0" y="375"/>
      <point x="234.0" y="372"/>
      <point x="234.0" y="363" type="curve" smooth="yes"/>
      <point x="234.0" y="354"/>
      <point x="231.0" y="350"/>
      <point x="221.0" y="349" type="curve"/>
      <point x="188.0" y="343" type="line" smooth="yes"/>
      <point x="153.0" y="337"/>
      <point x="143.0" y="321"/>
      <point x="143.0" y="281" type="curve" smooth="yes"/>
      <point x="143.0" y="164" type="line" smooth="yes"/>
      <point x="143.0" y="129"/>
      <point x="134.0" y="114"/>
      <point x="102.0" y="114" type="curve" smooth="yes"/>
      <point x="81.0" y="114" type="line" smooth="yes"/>
      <point x="56.0" y="114"/>
      <point x="45.0" y="103"/>
      <point x="45.0" y="78" type="curve" smooth="yes"/>
      <point x="45.0" y="-44" type="line" smooth="yes"/>
      <point x="45.0" y="-69"/>
      <point x="56.0" y="-80"/>
      <point x="81.0" y="-80" type="curve" smooth="yes"/>
      <point x="125.0" y="-80" type="line" smooth="yes"/>
      <point x="314.0" y="-80"/>
      <point x="371.0" y="4"/>
      <point x="371.0" y="126" type="curve" smooth="yes"/>
      <point x="371.0" y="259" type="line"/>
      <point x="414.0" y="272"/>
      <point x="435.0" y="297"/>
      <point x="435.0" y="345" type="curve" smooth="yes"/>
      <point x="435.0" y="380" type="line" smooth="yes"/>
      <point x="435.0" y="428"/>
      <point x="414.0" y="454"/>
      <point x="371.0" y="467" type="curve"/>
      <point x="371.0" y="597" type="line" smooth="yes"/>
      <point x="371.0" y="718"/>
      <point x="314.0" y="801"/>
      <point x="125.0" y="801" type="curve" smooth="yes"/>
      <point x="81.0" y="801" type="line" smooth="yes"/>
      <point x="56.0" y="801"/>
      <point x="45.0" y="790"/>
      <point x="45.0" y="765" type="curve" smooth="yes"/>
      <point x="45.0" y="646" type="line" smooth="yes"/>
      <point x="45.0" y="621"/>
      <point x="56.0" y="610"/>
      <point x="81.0" y="610" type="curve" smooth="yes"/>
      <point x="102.0" y="610" type="line" smooth="yes"/>
      <point x="134.0" y="610"/>
      <point x="143.0" y="595"/>
    </contour>
  </outline>
</glyph>
<glyph name="brokenbar" format="1">
  <advance width="1030"/>
  <unicode hex="00A6"/>
  <outline>
    <contour>
      <point x="591.0" y="468" type="line" smooth="yes"/>
      <point x="566.0" y="468"/>
      <point x="555.0" y="457"/>
      <point x="555.0" y="432" type="curve" smooth="yes"/>
      <point x="555.0" y="287" type="line" smooth="yes"/>
      <point x="555.0" y="262"/>
      <point x="566.0" y="251"/>
      <point x="591.0" y="251" type="curve" smooth="yes"/>
      <point x="929.0" y="251" type="line" smooth="yes"/>
      <point x="954.0" y="251"/>
      <point x="965.0" y="262"/>
      <point x="965.0" y="287" type="curve" smooth="yes"/>
      <point x="965.0" y="432" type="line" smooth="yes"/>
      <point x="965.0" y="457"/>
      <point x="954.0" y="468"/>
      <point x="929.0" y="468" type="curve" smooth="yes"/>
    </contour>
    <contour>
      <point x="101.0" y="468" type="line" smooth="yes"/>
      <point x="76.0" y="468"/>
      <point x="65.0" y="457"/>
      <point x="65.0" y="432" type="curve" smooth="yes"/>
      <point x="65.0" y="287" type="line" smooth="yes"/>
      <point x="65.0" y="262"/>
      <point x="76.0" y="251"/>
      <point x="101.0" y="251" type="curve" smooth="yes"/>
      <point x="439.0" y="251" type="line" smooth="yes"/>
      <point x="464.0" y="251"/>
      <point x="475.0" y="262"/>
      <point x="475.0" y="287" type="curve" smooth="yes"/>
      <point x="475.0" y="432" type="line" smooth="yes"/>
      <point x="475.0" y="457"/>
      <point x="464.0" y="468"/>
      <point x="439.0" y="468" type="curve"/>
    </contour>
  </outline>
</glyph>
<glyph name="registered" format="1">
  <advance width="666"/>
  <unicode hex="00AE"/>
  <outline>
    <contour>
      <point x="457.0" y="584" type="curve" smooth="yes"/>
      <point x="211.0" y="584" type="line" smooth="yes"/>
      <point x="122.0" y="584"/>
      <point x="62.0" y="541"/>
      <point x="62.0" y="360" type="curve" smooth="yes"/>
      <point x="62.0" y="180"/>
      <point x="122.0" y="136"/>
      <point x="211.0" y="136" type="curve" smooth="yes"/>
      <point x="457.0" y="136" type="line" smooth="yes"/>
      <point x="544.0" y="136"/>
      <point x="604.0" y="180"/>
      <point x="604.0" y="360" type="curve" smooth="yes"/>
      <point x="604.0" y="541"/>
      <point x="544.0" y="584"/>
    </contour>
    <contour>
      <point x="459.0" y="524" type="line"/>
      <point x="511.0" y="524"/>
      <point x="546.0" y="492"/>
      <point x="546.0" y="360" type="curve" smooth="yes"/>
      <point x="546.0" y="228"/>
      <point x="511.0" y="196"/>
      <point x="459.0" y="196" type="curve"/>
      <point x="208.0" y="196" type="line"/>
      <point x="156.0" y="196"/>
      <point x="120.0" y="228"/>
      <point x="120.0" y="360" type="curve" smooth="yes"/>
      <point x="120.0" y="492"/>
      <point x="156.0" y="524"/>
      <point x="208.0" y="524" type="curve"/>
    </contour>
    <contour>
      <point x="476.0" y="314" type="line" smooth="yes"/>
      <point x="476.0" y="324"/>
      <point x="471.0" y="328"/>
      <point x="461.0" y="328" type="curve" smooth="yes"/>
      <point x="378.0" y="328" type="line"/>
      <point x="378.0" y="386" type="line" smooth="yes"/>
      <point x="378.0" y="397"/>
      <point x="383.0" y="401"/>
      <point x="395.0" y="401" type="curve" smooth="yes"/>
      <point x="461.0" y="401" type="line" smooth="yes"/>
      <point x="471.0" y="401"/>
      <point x="476.0" y="406"/>
      <point x="476.0" y="416" type="curve" smooth="yes"/>
      <point x="476.0" y="480" type="line" smooth="yes"/>
      <point x="476.0" y="490"/>
      <point x="471.0" y="494"/>
      <point x="461.0" y="494" type="curve" smooth="yes"/>
      <point x="374.0" y="494" type="line" smooth="yes"/>
      <point x="340.0" y="494"/>
      <point x="318.0" y="474"/>
      <point x="314.0" y="444" type="curve"/>
      <point x="307.0" y="462"/>
      <point x="291.0" y="468"/>
      <point x="268.0" y="468" type="curve" smooth="yes"/>
      <point x="249.0" y="468" type="line" smooth="yes"/>
      <point x="208.0" y="468"/>
      <point x="181.0" y="449"/>
      <point x="181.0" y="387" type="curve" smooth="yes"/>
      <point x="181.0" y="251" type="line" smooth="yes"/>
      <point x="181.0" y="240"/>
      <point x="185.0" y="236"/>
      <point x="196.0" y="236" type="curve"/>
      <point x="461.0" y="236" type="line"/>
      <point x="471.0" y="236"/>
      <point x="476.0" y="240"/>
      <point x="476.0" y="251" type="curve" smooth="yes"/>
    </contour>
    <contour>
      <point x="254.0" y="328" type="line"/>
      <point x="307.0" y="328" type="line"/>
      <point x="307.0" y="359" type="line" smooth="yes"/>
      <point x="307.0" y="374"/>
      <point x="299.0" y="377"/>
      <point x="287.0" y="377" type="curve" smooth="yes"/>
      <point x="274.0" y="377" type="line" smooth="yes"/>
      <point x="263.0" y="377"/>
      <point x="254.0" y="374"/>
      <point x="254.0" y="359" type="curve" smooth="yes"/>
    </contour>
  </outline>
</glyph>
<glyph name="macron" format="1">
  <advance width="249"/>
  <unicode hex="00AF"/>
  <outline>
    <contour>
      <point x="207.0" y="533" type="line" smooth="yes"/>
      <point x="207.0" y="558"/>
      <point x="196.0" y="569"/>
      <point x="171.0" y="569" type="curve" smooth="yes"/>
      <point x="78.0" y="569" type="line" smooth="yes"/>
      <point x="53.0" y="569"/>
      <point x="42.0" y="558"/>
      <point x="42.0" y="533" type="curve" smooth="yes"/>
      <point x="42.0" y="186" type="line" smooth="yes"/>
      <point x="42.0" y="161"/>
      <point x="53.0" y="150"/>
      <point x="78.0" y="150" type="curve" smooth="yes"/>
      <point x="171.0" y="150" type="line" smooth="yes"/>
      <point x="196.0" y="150"/>
      <point x="207.0" y="161"/>
      <point x="207.0" y="186" type="curve" smooth="yes"/>
    </contour>
    <contour>
      <point x="220.0" y="360.0" type="move" name="_top"/>
    </contour>
    <contour>
      <point x="967.0" y="360.0" type="move" name="_bottom"/>
    </contour>
  </outline>
</glyph>
<glyph name="threesuperior" format="1">
  <advance width="798"/>
  <unicode hex="00B3"/>
  <outline>
    <contour>
      <point x="522.0" y="193" type="line" smooth="yes"/>
      <point x="522.0" y="175"/>
      <point x="530.0" y="167"/>
      <point x="548.0" y="167" type="curve" smooth="yes"/>
      <point x="632.0" y="167" type="line" smooth="yes"/>
      <point x="650.0" y="167"/>
      <point x="658.0" y="175"/>
      <point x="658.0" y="193" type="curve" smooth="yes"/>
      <point x="658.0" y="421" type="line" smooth="yes"/>
      <point x="658.0" y="513"/>
      <point x="613.0" y="561"/>
      <point x="539.0" y="561" type="curve" smooth="yes"/>
      <point x="467.0" y="561" type="line" smooth="yes"/>
      <point x="403.0" y="561"/>
      <point x="370.0" y="538"/>
      <point x="362.0" y="470" type="curve"/>
      <point x="349.0" y="502"/>
      <point x="321.0" y="512"/>
      <point x="285.0" y="512" type="curve" smooth="yes"/>
      <point x="243.0" y="512" type="line" smooth="yes"/>
      <point x="179.0" y="512"/>
      <point x="140.0" y="474"/>
      <point x="140.0" y="394" type="curve" smooth="yes"/>
      <point x="140.0" y="193" type="line" smooth="yes"/>
      <point x="140.0" y="175"/>
      <point x="148.0" y="167"/>
      <point x="166.0" y="167" type="curve" smooth="yes"/>
      <point x="251.0" y="167" type="line" smooth="yes"/>
      <point x="269.0" y="167"/>
      <point x="277.0" y="175"/>
      <point x="277.0" y="193" type="curve" smooth="yes"/>
      <point x="277.0" y="327" type="line" smooth="yes"/>
      <point x="277.0" y="350"/>
      <point x="287.0" y="355"/>
      <point x="299.0" y="355" type="curve" smooth="yes"/>
      <point x="310.0" y="355" type="line" smooth="yes"/>
      <point x="321.0" y="355"/>
      <point x="331.0" y="350"/>
      <point x="331.0" y="327" type="curve" smooth="yes"/>
      <point x="331.0" y="252" type="line" smooth="yes"/>
      <point x="331.0" y="234"/>
      <point x="339.0" y="226"/>
      <point x="357.0" y="226" type="curve" smooth="yes"/>
      <point x="434.0" y="226" type="line" smooth="yes"/>
      <point x="452.0" y="226"/>
      <point x="460.0" y="234"/>
      <point x="460.0" y="252" type="curve" smooth="yes"/>
      <point x="460.0" y="374" type="line" smooth="yes"/>
      <point x="460.0" y="397"/>
      <point x="470.0" y="401"/>
      <point x="481.0" y="401" type="curve" smooth="yes"/>
      <point x="501.0" y="401" type="line" smooth="yes"/>
      <point x="512.0" y="401"/>
      <point x="522.0" y="397"/>
      <point x="522.0" y="374" type="curve" smooth="yes"/>
    </contour>
  </outline>
</glyph>
<glyph name="acute" format="1">
  <advance width="262"/>
  <unicode hex="00B4"/>
  <outline>
    <contour>
      <point x="192.0" y="533" type="line" smooth="yes"/>
      <point x="189.0" y="558"/>
      <point x="181.0" y="569"/>
      <point x="156.0" y="569" type="curve" smooth="yes"/>
      <point x="60.0" y="569" type="line" smooth="yes"/>
      <point x="37.0" y="569"/>
      <point x="24.0" y="558"/>
      <point x="27.0" y="535" type="curve"/>
      <point x="70.0" y="186" type="line" smooth="yes"/>
      <point x="73.0" y="161"/>
      <point x="81.0" y="150"/>
      <point x="106.0" y="150" type="curve" smooth="yes"/>
      <point x="202.0" y="150" type="line" smooth="yes"/>
      <point x="225.0" y="150"/>
      <point x="238.0" y="161"/>
      <point x="235.0" y="184" type="curve" smooth="yes"/>
    </contour>
    <contour>
      <point x="241.0" y="360.0" type="move" name="_top"/>
    </contour>
    <contour>
      <point x="988.0" y="360.0" type="move" name="_bottom"/>
    </contour>
  </outline>
</glyph>
<glyph name="cedilla" format="1">
  <advance width="301"/>
  <unicode hex="00B8"/>
  <outline>
    <contour>
      <point x="274.0" y="374" type="line"/>
      <point x="274.0" y="400"/>
      <point x="265.0" y="413"/>
      <point x="244.0" y="420" type="curve" smooth="yes"/>
      <point x="67.0" y="483" type="line" smooth="yes"/>
      <point x="48.0" y="490"/>
      <point x="35.0" y="485"/>
      <point x="27.0" y="463" type="curve" smooth="yes"/>
      <point x="-16.0" y="347" type="line" smooth="yes"/>
      <point x="-25.0" y="323"/>
      <point x="-18.0" y="311"/>
      <point x="4.0" y="303" type="curve" smooth="yes"/>
      <point x="234.0" y="218" type="line" smooth="yes"/>
      <point x="258.0" y="209"/>
      <point x="274.0" y="214"/>
      <point x="274.0" y="248" type="curve" smooth="yes"/>
    </contour>
    <contour>
      <point x="-599.0" y="360.0" type="move" name="_top"/>
    </contour>
    <contour>
      <point x="148.0" y="360.0" type="move" name="_bottom"/>
    </contour>
  </outline>
</glyph>
<glyph name="ordmasculine" format="1">
  <advance width="882"/>
  <unicode hex="00BA"/>
  <outline>
    <contour>
      <point x="802.0" y="172" type="curve"/>
      <point x="802.0" y="547" type="line" smooth="yes"/>
      <point x="802.0" y="572"/>
      <point x="792.0" y="583"/>
      <point x="766.0" y="583" type="curve" smooth="yes"/>
      <point x="699.0" y="583" type="line" smooth="yes"/>
      <point x="673.0" y="583"/>
      <point x="663.0" y="572"/>
      <point x="663.0" y="547" type="curve" smooth="yes"/>
      <point x="663.0" y="172" type="line" smooth="yes"/>
      <point x="663.0" y="147"/>
      <point x="674.0" y="136"/>
      <point x="699.0" y="136" type="curve" smooth="yes"/>
      <point x="766.0" y="136" type="line" smooth="yes"/>
      <point x="792.0" y="136"/>
      <point x="802.0" y="147"/>
    </contour>
    <contour>
      <point x="462.0" y="583" type="curve"/>
      <point x="221.0" y="583" type="line"/>
      <point x="132.0" y="583"/>
      <point x="72.0" y="540"/>
      <point x="72.0" y="360" type="curve" smooth="yes"/>
      <point x="72.0" y="180"/>
      <point x="132.0" y="136"/>
      <point x="221.0" y="136" type="curve"/>
      <point x="462.0" y="136" type="line"/>
      <point x="550.0" y="136"/>
      <point x="610.0" y="180"/>
      <point x="610.0" y="360" type="curve" smooth="yes"/>
      <point x="610.0" y="540"/>
      <point x="550.0" y="583"/>
    </contour>
    <contour>
      <point x="437.0" y="305" type="curve"/>
      <point x="247.0" y="305" type="line"/>
      <point x="231.0" y="305"/>
      <point x="218.0" y="313"/>
      <point x="218.0" y="360" type="curve" smooth="yes"/>
      <point x="218.0" y="408"/>
      <point x="231.0" y="415"/>
      <point x="247.0" y="415" type="curve"/>
      <point x="437.0" y="415" type="line"/>
      <point x="453.0" y="415"/>
      <point x="465.0" y="408"/>
      <point x="465.0" y="360" type="curve" smooth="yes"/>
      <point x="465.0" y="313"/>
      <point x="453.0" y="305"/>
    </contour>
    <contour>
      <point x="57.0" y="125.0" type="move" name="top"/>
    </contour>
    <contour>
      <point x="595.0" y="125.0" type="move" name="bottom"/>
    </contour>
  </outline>
</glyph>
<glyph name="Ccedilla" format="1">
  <advance width="905"/>
  <unicode hex="00C7"/>
  <outline>
    <contour>
      <point x="838" y="238" type="line" smooth="yes"/>
      <point x="862" y="229"/>
      <point x="878" y="234"/>
      <point x="878" y="268" type="curve" smooth="yes"/>
      <point x="878" y="394" type="line"/>
      <point x="878" y="420"/>
      <point x="869" y="433"/>
      <point x="848" y="440" type="curve" smooth="yes"/>
      <point x="752" y="474" type="line"/>
      <point x="752" y="615" type="line" smooth="yes"/>
      <point x="752" y="640"/>
      <point x="741" y="651"/>
      <point x="716" y="651" type="curve" smooth="yes"/>
      <point x="597" y="651" type="line" smooth="yes"/>
      <point x="572" y="651"/>
      <point x="561" y="640"/>
      <point x="561" y="615" type="curve" smooth="yes"/>
      <point x="561" y="345" type="line" smooth="yes"/>
      <point x="561" y="293"/>
      <point x="541" y="284"/>
      <point x="513" y="284" type="curve" smooth="yes"/>
      <point x="315" y="284" type="line" smooth="yes"/>
      <point x="289" y="284"/>
      <point x="265" y="293"/>
      <point x="265" y="345" type="curve" smooth="yes"/>
      <point x="265" y="615" type="line" smooth="yes"/>
      <point x="265" y="640"/>
      <point x="254" y="651"/>
      <point x="229" y="651" type="curve" smooth="yes"/>
      <point x="108" y="651" type="line" smooth="yes"/>
      <point x="83" y="651"/>
      <point x="72" y="640"/>
      <point x="72" y="615" type="curve" smooth="yes"/>
      <point x="72" y="302" type="line" smooth="yes"/>
      <point x="72" y="113"/>
      <point x="155" y="56"/>
      <point x="277" y="56" type="curve" smooth="yes"/>
      <point x="548" y="56" type="line" smooth="yes"/>
      <point x="662" y="56"/>
      <point x="742" y="106"/>
      <point x="751" y="270" type="curve"/>
    </contour>
  </outline>
</glyph>
<glyph name="Thorn" format="1">
  <advance width="850"/>
  <unicode hex="00DE"/>
  <outline>
    <contour>
      <point x="785.0" y="252" type="line" smooth="yes"/>
      <point x="785.0" y="277"/>
      <point x="774.0" y="288"/>
      <point x="749.0" y="288" type="curve" smooth="yes"/>
      <point x="680.0" y="288" type="line"/>
      <point x="680.0" y="427" type="line" smooth="yes"/>
      <point x="680.0" y="609"/>
      <point x="601.0" y="663"/>
      <point x="485.0" y="663" type="curve" smooth="yes"/>
      <point x="363.0" y="663" type="line" smooth="yes"/>
      <point x="247.0" y="663"/>
      <point x="168.0" y="609"/>
      <point x="168.0" y="427" type="curve" smooth="yes"/>
      <point x="168.0" y="288" type="line"/>
      <point x="101.0" y="288" type="line" smooth="yes"/>
      <point x="76.0" y="288"/>
      <point x="65.0" y="277"/>
      <point x="65.0" y="252" type="curve" smooth="yes"/>
      <point x="65.0" y="97" type="line" smooth="yes"/>
      <point x="65.0" y="72"/>
      <point x="76.0" y="61"/>
      <point x="101.0" y="61" type="curve" smooth="yes"/>
      <point x="749.0" y="61" type="line" smooth="yes"/>
      <point x="774.0" y="61"/>
      <point x="785.0" y="72"/>
      <point x="785.0" y="97" type="curve" smooth="yes"/>
    </contour>
    <contour>
      <point x="355.0" y="286" type="line"/>
      <point x="355.0" y="400" type="line" smooth="yes"/>
      <point x="355.0" y="439"/>
      <point x="378.0" y="447"/>
      <point x="404.0" y="447" type="curve" smooth="yes"/>
      <point x="451.0" y="447" type="line" smooth="yes"/>
      <point x="477.0" y="447"/>
      <point x="500.0" y="439"/>
      <point x="500.0" y="400" type="curve" smooth="yes"/>
      <point x="500.0" y="286" type="line"/>
    </contour>
  </outline>
</glyph>
<glyph name="divide" format="1">
  <advance width="738"/>
  <unicode hex="00F7"/>
  <outline>
    <contour>
      <point x="452.0" y="99" type="curve"/>
      <point x="452.0" y="621" type="line" smooth="yes"/>
      <point x="452.0" y="646"/>
      <point x="442.0" y="657"/>
      <point x="416.0" y="657" type="curve" smooth="yes"/>
      <point x="322.0" y="657" type="line" smooth="yes"/>
      <point x="296.0" y="657"/>
      <point x="286.0" y="646"/>
      <point x="286.0" y="621" type="curve" smooth="yes"/>
      <point x="286.0" y="99" type="line" smooth="yes"/>
      <point x="286.0" y="74"/>
      <point x="297.0" y="63"/>
      <point x="322.0" y="63" type="curve" smooth="yes"/>
      <point x="416.0" y="63" type="line" smooth="yes"/>
      <point x="442.0" y="63"/>
      <point x="452.0" y="74"/>
    </contour>
    <contour>
      <point x="687.0" y="441" type="line" smooth="yes"/>
      <point x="687.0" y="466"/>
      <point x="676.0" y="477"/>
      <point x="651.0" y="477" type="curve" smooth="yes"/>
      <point x="528.0" y="477" type="line" smooth="yes"/>
      <point x="502.0" y="477"/>
      <point x="492.0" y="466"/>
      <point x="492.0" y="441" type="curve" smooth="yes"/>
      <point x="492.0" y="279" type="line" smooth="yes"/>
      <point x="492.0" y="254"/>
      <point x="502.0" y="243"/>
      <point x="528.0" y="243" type="curve" smooth="yes"/>
      <point x="651.0" y="243" type="line" smooth="yes"/>
      <point x="676.0" y="243"/>
      <point x="687.0" y="254"/>
      <point x="687.0" y="279" type="curve" smooth="yes"/>
    </contour>
    <contour>
      <point x="246.0" y="441" type="line" smooth="yes"/>
      <point x="246.0" y="466"/>
      <point x="235.0" y="477"/>
      <point x="210.0" y="477" type="curve" smooth="yes"/>
      <point x="87.0" y="477" type="line" smooth="yes"/>
      <point x="61.0" y="477"/>
      <point x="51.0" y="466"/>
      <point x="51.0" y="441" type="curve" smooth="yes"/>
      <point x="51.0" y="279" type="line" smooth="yes"/>
      <point x="51.0" y="254"/>
      <point x="61.0" y="243"/>
      <point x="87.0" y="243" type="curve"/>
      <point x="210.0" y="243" type="line"/>
      <point x="235.0" y="243"/>
      <point x="246.0" y="254"/>
      <point x="246.0" y="279" type="curve" smooth="yes"/>
    </contour>
  </outline>
</glyph>
<glyph name="Aogonek" format="1">
  <advance width="945"/>
  <unicode hex="0104"/>
  <outline>
    <contour>
      <point x="706" y="61" type="line" smooth="yes"/>
      <point x="731" y="61"/>
      <point x="742" y="71"/>
      <point x="742" y="97" type="curve" smooth="yes"/>
      <point x="742" y="244" type="line" smooth="yes"/>
      <point x="742" y="269"/>
      <point x="731" y="280"/>
      <point x="706" y="280" type="curve" smooth="yes"/>
      <point x="586" y="280" type="line"/>
      <point x="586" y="437" type="line"/>
      <point x="675" y="437" type="line"/>
      <point x="793" y="416" type="line" smooth="yes"/>
      <point x="886" y="402"/>
      <point x="928" y="431"/>
      <point x="928" y="517" type="curve" smooth="yes"/>
      <point x="928" y="628" type="line" smooth="yes"/>
      <point x="928" y="654"/>
      <point x="920" y="661"/>
      <point x="894" y="661" type="curve" smooth="yes"/>
      <point x="822" y="661" type="line" smooth="yes"/>
      <point x="796" y="661"/>
      <point x="788" y="653"/>
      <point x="788" y="625" type="curve" smooth="yes"/>
      <point x="788" y="584" type="line"/>
      <point x="742" y="591" type="line"/>
      <point x="742" y="627" type="line" smooth="yes"/>
      <point x="742" y="652"/>
      <point x="731" y="663"/>
      <point x="706" y="663" type="curve" smooth="yes"/>
      <point x="462" y="663" type="line" smooth="yes"/>
      <point x="393" y="663"/>
      <point x="378" y="653"/>
      <point x="302" y="624" type="curve" smooth="yes"/>
      <point x="95" y="537" type="line" smooth="yes"/>
      <point x="70" y="528"/>
      <point x="62" y="513"/>
      <point x="62" y="487" type="curve" smooth="yes"/>
      <point x="62" y="228" type="line" smooth="yes"/>
      <point x="62" y="202"/>
      <point x="70" y="186"/>
      <point x="95" y="177" type="curve" smooth="yes"/>
      <point x="302" y="100" type="line" smooth="yes"/>
      <point x="378" y="71"/>
      <point x="393" y="61"/>
      <point x="462" y="61" type="curve" smooth="yes"/>
    </contour>
    <contour>
      <point x="272" y="337" type="line"/>
      <point x="259" y="343"/>
      <point x="255" y="345"/>
      <point x="255" y="356" type="curve" smooth="yes"/>
      <point x="255" y="361" type="line" smooth="yes"/>
      <point x="255" y="372"/>
      <point x="259" y="374"/>
      <point x="272" y="380" type="curve"/>
      <point x="404" y="427" type="line"/>
      <point x="404" y="290" type="line"/>
    </contour>
  </outline>
</glyph>
<glyph name="Eogonek" format="1">
  <advance width="963"/>
  <unicode hex="0118"/>
  <outline>
    <contour>
      <point x="724" y="60" type="line" smooth="yes"/>
      <point x="749" y="60"/>
      <point x="760" y="71"/>
      <point x="760" y="96" type="curve" smooth="yes"/>
      <point x="760" y="414" type="line"/>
      <point x="811" y="405" type="line" smooth="yes"/>
      <point x="904" y="391"/>
      <point x="946" y="420"/>
      <point x="946" y="506" type="curve" smooth="yes"/>
      <point x="946" y="617" type="line" smooth="yes"/>
      <point x="946" y="643"/>
      <point x="938" y="650"/>
      <point x="912" y="650" type="curve" smooth="yes"/>
      <point x="840" y="650" type="line" smooth="yes"/>
      <point x="814" y="650"/>
      <point x="806" y="642"/>
      <point x="806" y="614" type="curve" smooth="yes"/>
      <point x="806" y="573" type="line"/>
      <point x="760" y="580" type="line"/>
      <point x="760" y="614" type="line" smooth="yes"/>
      <point x="760" y="639"/>
      <point x="749" y="650"/>
      <point x="724" y="650" type="curve" smooth="yes"/>
      <point x="611" y="650" type="line" smooth="yes"/>
      <point x="586" y="650"/>
      <point x="575" y="639"/>
      <point x="575" y="614" type="curve" smooth="yes"/>
      <point x="575" y="284" type="line"/>
      <point x="499" y="284" type="line"/>
      <point x="499" y="533" type="line" smooth="yes"/>
      <point x="499" y="558"/>
      <point x="488" y="569"/>
      <point x="463" y="569" type="curve" smooth="yes"/>
      <point x="368" y="569" type="line" smooth="yes"/>
      <point x="342" y="569"/>
      <point x="332" y="558"/>
      <point x="332" y="533" type="curve" smooth="yes"/>
      <point x="332" y="284" type="line"/>
      <point x="265" y="284" type="line"/>
      <point x="265" y="614" type="line" smooth="yes"/>
      <point x="265" y="639"/>
      <point x="254" y="650"/>
      <point x="229" y="650" type="curve" smooth="yes"/>
      <point x="116" y="650" type="line" smooth="yes"/>
      <point x="91" y="650"/>
      <point x="80" y="639"/>
      <point x="80" y="614" type="curve" smooth="yes"/>
      <point x="80" y="96" type="line" smooth="yes"/>
      <point x="80" y="71"/>
      <point x="91" y="60"/>
      <point x="116" y="60" type="curve" smooth="yes"/>
    </contour>
  </outline>
</glyph>
<glyph name="Ldot" format="1">
  <advance width="1012"/>
  <unicode hex="013F"/>
  <outline>
    <contour>
      <point x="735" y="624" type="line" smooth="yes"/>
      <point x="735" y="649"/>
      <point x="724" y="660"/>
      <point x="699" y="660" type="curve" smooth="yes"/>
      <point x="394" y="660" type="line" smooth="yes"/>
      <point x="369" y="660"/>
      <point x="358" y="649"/>
      <point x="358" y="624" type="curve" smooth="yes"/>
      <point x="358" y="479" type="line" smooth="yes"/>
      <point x="358" y="454"/>
      <point x="369" y="443"/>
      <point x="394" y="443" type="curve" smooth="yes"/>
      <point x="546" y="443" type="line"/>
      <point x="546" y="287" type="line"/>
      <point x="91" y="287" type="line" smooth="yes"/>
      <point x="66" y="287"/>
      <point x="55" y="276"/>
      <point x="55" y="251" type="curve" smooth="yes"/>
      <point x="55" y="96" type="line" smooth="yes"/>
      <point x="55" y="71"/>
      <point x="66" y="60"/>
      <point x="91" y="60" type="curve" smooth="yes"/>
      <point x="699" y="60" type="line" smooth="yes"/>
      <point x="724" y="60"/>
      <point x="735" y="71"/>
      <point x="735" y="96" type="curve" smooth="yes"/>
    </contour>
    <contour>
      <point x="995" y="456" type="line" smooth="yes"/>
      <point x="995" y="481"/>
      <point x="984" y="492"/>
      <point x="959" y="492" type="curve" smooth="yes"/>
      <point x="832" y="492" type="line" smooth="yes"/>
      <point x="807" y="492"/>
      <point x="796" y="481"/>
      <point x="796" y="456" type="curve" smooth="yes"/>
      <point x="796" y="298" type="line" smooth="yes"/>
      <point x="796" y="273"/>
      <point x="807" y="262"/>
      <point x="832" y="262" type="curve" smooth="yes"/>
      <point x="959" y="262" type="line" smooth="yes"/>
      <point x="984" y="262"/>
      <point x="995" y="273"/>
      <point x="995" y="298" type="curve" smooth="yes"/>
    </contour>
  </outline>
</glyph>
<glyph name="Eng" format="1">
  <advance width="930"/>
  <unicode hex="014A"/>
  <outline>
    <contour>
      <point x="271.0" y="60" type="curve" smooth="yes"/>
      <point x="747.0" y="60" type="line" smooth="yes"/>
      <point x="772.0" y="60"/>
      <point x="783.0" y="71"/>
      <point x="783.0" y="96" type="curve" smooth="yes"/>
      <point x="783.0" y="248" type="line" smooth="yes"/>
      <point x="783.0" y="274"/>
      <point x="772.0" y="284"/>
      <point x="747.0" y="284" type="curve" smooth="yes"/>
      <point x="310.0" y="284" type="line" smooth="yes"/>
      <point x="283.0" y="284"/>
      <point x="263.0" y="296"/>
      <point x="263.0" y="358" type="curve" smooth="yes"/>
      <point x="263.0" y="419"/>
      <point x="283.0" y="431"/>
      <point x="310.0" y="431" type="curve" smooth="yes"/>
      <point x="633.0" y="431" type="line" smooth="yes"/>
      <point x="661.0" y="431"/>
      <point x="681.0" y="425"/>
      <point x="681.0" y="390" type="curve" smooth="yes"/>
      <point x="681.0" y="369" type="line" smooth="yes"/>
      <point x="681.0" y="344"/>
      <point x="692.0" y="333"/>
      <point x="717.0" y="333" type="curve" smooth="yes"/>
      <point x="837.0" y="333" type="line" smooth="yes"/>
      <point x="862.0" y="333"/>
      <point x="873.0" y="344"/>
      <point x="873.0" y="369" type="curve" smooth="yes"/>
      <point x="873.0" y="414" type="line" smooth="yes"/>
      <point x="873.0" y="603"/>
      <point x="790.0" y="660"/>
      <point x="668.0" y="660" type="curve"/>
      <point x="271.0" y="660" type="line" smooth="yes"/>
      <point x="149.0" y="660"/>
      <point x="67.0" y="599"/>
      <point x="67.0" y="360" type="curve" smooth="yes"/>
      <point x="67.0" y="121"/>
      <point x="149.0" y="60"/>
    </contour>
  </outline>
</glyph>
<glyph name="Scedilla" format="1">
  <advance width="905"/>
  <unicode hex="015E"/>
  <outline>
    <contour>
      <point x="504" y="215" type="curve" smooth="yes"/>
      <point x="515" y="407" type="line" smooth="yes"/>
      <point x="517" y="424"/>
      <point x="521" y="433"/>
      <point x="544" y="433" type="curve" smooth="yes"/>
      <point x="560" y="433"/>
      <point x="573" y="424"/>
      <point x="573" y="407" type="curve" smooth="yes"/>
      <point x="573" y="96" type="line" smooth="yes"/>
      <point x="573" y="71"/>
      <point x="584" y="60"/>
      <point x="609" y="60" type="curve" smooth="yes"/>
      <point x="716" y="60" type="line" smooth="yes"/>
      <point x="741" y="60"/>
      <point x="752" y="71"/>
      <point x="752" y="96" type="curve" smooth="yes"/>
      <point x="752" y="234" type="line"/>
      <point x="838" y="202" type="line" smooth="yes"/>
      <point x="862" y="193"/>
      <point x="878" y="198"/>
      <point x="878" y="232" type="curve" smooth="yes"/>
      <point x="878" y="358" type="line"/>
      <point x="878" y="384"/>
      <point x="869" y="397"/>
      <point x="848" y="404" type="curve" smooth="yes"/>
      <point x="752" y="438" type="line"/>
      <point x="752" y="454" type="line" smooth="yes"/>
      <point x="752" y="583"/>
      <point x="690" y="661"/>
      <point x="576" y="661" type="curve" smooth="yes"/>
      <point x="481" y="661" type="line" smooth="yes"/>
      <point x="369" y="661"/>
      <point x="334" y="599"/>
      <point x="320" y="505" type="curve" smooth="yes"/>
      <point x="310" y="314" type="line" smooth="yes"/>
      <point x="308" y="297"/>
      <point x="301" y="287"/>
      <point x="283" y="287" type="curve" smooth="yes"/>
      <point x="265" y="287"/>
      <point x="253" y="297"/>
      <point x="253" y="314" type="curve" smooth="yes"/>
      <point x="253" y="599" type="line" smooth="yes"/>
      <point x="253" y="624"/>
      <point x="242" y="635"/>
      <point x="217" y="635" type="curve" smooth="yes"/>
      <point x="108" y="635" type="line" smooth="yes"/>
      <point x="83" y="635"/>
      <point x="72" y="624"/>
      <point x="72" y="599" type="curve" smooth="yes"/>
      <point x="72" y="267" type="line" smooth="yes"/>
      <point x="72" y="137"/>
      <point x="134" y="60"/>
      <point x="248" y="60" type="curve" smooth="yes"/>
      <point x="343" y="60" type="line" smooth="yes"/>
      <point x="455" y="60"/>
      <point x="490" y="121"/>
    </contour>
  </outline>
</glyph>
<glyph name="Tcommaaccent" format="1">
  <advance width="1002"/>
  <unicode hex="0162"/>
  <unicode hex="021A"/>
  <outline>
    <contour>
      <point x="680.0" y="444" type="line" smooth="yes"/>
      <point x="680.0" y="469"/>
      <point x="669.0" y="480"/>
      <point x="644.0" y="480" type="curve" smooth="yes"/>
      <point x="273.0" y="480" type="line"/>
      <point x="273.0" y="624" type="line" smooth="yes"/>
      <point x="273.0" y="649"/>
      <point x="262.0" y="660"/>
      <point x="237.0" y="660" type="curve" smooth="yes"/>
      <point x="116.0" y="660" type="line" smooth="yes"/>
      <point x="91.0" y="660"/>
      <point x="80.0" y="649"/>
      <point x="80.0" y="624" type="curve" smooth="yes"/>
      <point x="80.0" y="96" type="line" smooth="yes"/>
      <point x="80.0" y="71"/>
      <point x="91.0" y="60"/>
      <point x="116.0" y="60" type="curve" smooth="yes"/>
      <point x="237.0" y="60" type="line" smooth="yes"/>
      <point x="262.0" y="60"/>
      <point x="273.0" y="71"/>
      <point x="273.0" y="96" type="curve" smooth="yes"/>
      <point x="273.0" y="240" type="line"/>
      <point x="644.0" y="240" type="line" smooth="yes"/>
      <point x="669.0" y="240"/>
      <point x="680.0" y="251"/>
      <point x="680.0" y="276" type="curve" smooth="yes"/>
    </contour>
    <component base="commaaccent" xOffset="693" yOffset="-1"/>
  </outline>
</glyph>
<glyph name="Uogonek" format="1">
  <advance width="961"/>
  <unicode hex="0172"/>
  <outline>
    <contour>
      <point x="809" y="255" type="line" smooth="yes"/>
      <point x="902" y="241"/>
      <point x="944" y="270"/>
      <point x="944" y="356" type="curve" smooth="yes"/>
      <point x="944" y="467" type="line" smooth="yes"/>
      <point x="944" y="493"/>
      <point x="936" y="500"/>
      <point x="910" y="500" type="curve" smooth="yes"/>
      <point x="838" y="500" type="line" smooth="yes"/>
      <point x="812" y="500"/>
      <point x="804" y="492"/>
      <point x="804" y="464" type="curve" smooth="yes"/>
      <point x="804" y="423" type="line"/>
      <point x="759" y="429" type="line"/>
      <point x="744" y="612"/>
      <point x="667" y="660"/>
      <point x="558" y="660" type="curve" smooth="yes"/>
      <point x="103" y="660" type="line" smooth="yes"/>
      <point x="78" y="660"/>
      <point x="67" y="649"/>
      <point x="67" y="624" type="curve" smooth="yes"/>
      <point x="67" y="472" type="line" smooth="yes"/>
      <point x="67" y="446"/>
      <point x="78" y="436"/>
      <point x="103" y="436" type="curve" smooth="yes"/>
      <point x="519" y="436" type="line" smooth="yes"/>
      <point x="546" y="436"/>
      <point x="566" y="424"/>
      <point x="566" y="362" type="curve" smooth="yes"/>
      <point x="566" y="301"/>
      <point x="546" y="289"/>
      <point x="519" y="289" type="curve" smooth="yes"/>
      <point x="103" y="289" type="line" smooth="yes"/>
      <point x="78" y="289"/>
      <point x="67" y="278"/>
      <point x="67" y="253" type="curve" smooth="yes"/>
      <point x="67" y="96" type="line" smooth="yes"/>
      <point x="67" y="71"/>
      <point x="78" y="60"/>
      <point x="103" y="60" type="curve" smooth="yes"/>
      <point x="558" y="60" type="line" smooth="yes"/>
      <point x="662" y="60"/>
      <point x="737" y="103"/>
      <point x="757" y="264" type="curve"/>
    </contour>
  </outline>
</glyph>
<glyph name="florin" format="1">
  <advance width="844"/>
  <unicode hex="0192"/>
  <outline>
    <contour>
      <point x="512.0" y="154" type="curve"/>
      <point x="512.0" y="246" type="line"/>
      <point x="539.0" y="246" type="line" smooth="yes"/>
      <point x="565.0" y="246"/>
      <point x="589.0" y="240"/>
      <point x="589.0" y="205" type="curve" smooth="yes"/>
      <point x="589.0" y="154" type="line" smooth="yes"/>
      <point x="589.0" y="129"/>
      <point x="600.0" y="118"/>
      <point x="625.0" y="118" type="curve" smooth="yes"/>
      <point x="746.0" y="118" type="line" smooth="yes"/>
      <point x="771.0" y="118"/>
      <point x="782.0" y="129"/>
      <point x="782.0" y="154" type="curve" smooth="yes"/>
      <point x="782.0" y="228" type="line" smooth="yes"/>
      <point x="782.0" y="417"/>
      <point x="699.0" y="474"/>
      <point x="577.0" y="474" type="curve" smooth="yes"/>
      <point x="512.0" y="474" type="line"/>
      <point x="512.0" y="566" type="line" smooth="yes"/>
      <point x="512.0" y="591"/>
      <point x="502.0" y="602"/>
      <point x="476.0" y="602" type="curve" smooth="yes"/>
      <point x="369.0" y="602" type="line" smooth="yes"/>
      <point x="343.0" y="602"/>
      <point x="333.0" y="591"/>
      <point x="333.0" y="566" type="curve" smooth="yes"/>
      <point x="333.0" y="474" type="line"/>
      <point x="305.0" y="474" type="line" smooth="yes"/>
      <point x="279.0" y="474"/>
      <point x="255.0" y="480"/>
      <point x="255.0" y="515" type="curve" smooth="yes"/>
      <point x="255.0" y="566" type="line" smooth="yes"/>
      <point x="255.0" y="591"/>
      <point x="244.0" y="602"/>
      <point x="219.0" y="602" type="curve" smooth="yes"/>
      <point x="98.0" y="602" type="line" smooth="yes"/>
      <point x="73.0" y="602"/>
      <point x="62.0" y="591"/>
      <point x="62.0" y="566" type="curve" smooth="yes"/>
      <point x="62.0" y="492" type="line" smooth="yes"/>
      <point x="62.0" y="303"/>
      <point x="145.0" y="246"/>
      <point x="267.0" y="246" type="curve"/>
      <point x="333.0" y="246" type="line"/>
      <point x="333.0" y="154" type="line" smooth="yes"/>
      <point x="333.0" y="129"/>
      <point x="344.0" y="118"/>
      <point x="369.0" y="118" type="curve" smooth="yes"/>
      <point x="476.0" y="118" type="line" smooth="yes"/>
      <point x="502.0" y="118"/>
      <point x="512.0" y="129"/>
    </contour>
  </outline>
</glyph>
<glyph name="circumflex" format="1">
  <advance width="269"/>
  <unicode hex="02C6"/>
  <outline>
    <contour>
      <point x="197.0" y="328" type="line"/>
      <point x="191.0" y="351"/>
      <point x="191.0" y="367"/>
      <point x="197.0" y="390" type="curve"/>
      <point x="237.0" y="527" type="line" smooth="yes"/>
      <point x="248.0" y="562"/>
      <point x="242.0" y="569"/>
      <point x="206.0" y="569" type="curve" smooth="yes"/>
      <point x="125.0" y="569" type="line" smooth="yes"/>
      <point x="89.0" y="569"/>
      <point x="85.0" y="561"/>
      <point x="72.0" y="527" type="curve" smooth="yes"/>
      <point x="22.0" y="390" type="line" smooth="yes"/>
      <point x="18.0" y="380"/>
      <point x="17.0" y="370"/>
      <point x="17.0" y="358" type="curve" smooth="yes"/>
      <point x="18.0" y="346"/>
      <point x="21.0" y="331"/>
      <point x="26.0" y="319" type="curve" smooth="yes"/>
      <point x="72.0" y="191" type="line" smooth="yes"/>
      <point x="85.0" y="159"/>
      <point x="89.0" y="150"/>
      <point x="125.0" y="150" type="curve" smooth="yes"/>
      <point x="206.0" y="150" type="line" smooth="yes"/>
      <point x="242.0" y="150"/>
      <point x="248.0" y="157"/>
      <point x="237.0" y="191" type="curve" smooth="yes"/>
    </contour>
    <contour>
      <point x="247.0" y="360.0" type="move" name="_top"/>
    </contour>
    <contour>
      <point x="994.0" y="360.0" type="move" name="_bottom"/>
    </contour>
  </outline>
</glyph>
<glyph name="ogonek" format="1">
  <advance width="287"/>
  <unicode hex="02DB"/>
  <outline>
    <contour>
      <point x="17.0" y="427" type="line"/>
      <point x="17.0" y="264" type="line"/>
      <point x="135.0" y="243" type="line" smooth="yes"/>
      <point x="228.0" y="229"/>
      <point x="270.0" y="258"/>
      <point x="270.0" y="344" type="curve" smooth="yes"/>
      <point x="270.0" y="455" type="line" smooth="yes"/>
      <point x="270.0" y="481"/>
      <point x="262.0" y="488"/>
      <point x="236.0" y="488" type="curve" smooth="yes"/>
      <point x="164.0" y="488" type="line" smooth="yes"/>
      <point x="138.0" y="488"/>
      <point x="130.0" y="480"/>
      <point x="130.0" y="452" type="curve" smooth="yes"/>
      <point x="130.0" y="411" type="line"/>
    </contour>
    <contour>
      <point x="-663.0" y="360.0" type="move" name="_top"/>
    </contour>
    <contour>
      <point x="84.0" y="360.0" type="move" name="_bottom"/>
    </contour>
  </outline>
</glyph>
<glyph name="hungarumlaut" format="1">
  <advance width="351"/>
  <unicode hex="02DD"/>
  <outline>
    <contour>
      <point x="280.0" y="365" type="line" smooth="yes"/>
      <point x="302.0" y="359"/>
      <point x="314.0" y="375"/>
      <point x="314.0" y="398" type="curve" smooth="yes"/>
      <point x="314.0" y="504" type="line" smooth="yes"/>
      <point x="314.0" y="529"/>
      <point x="302.0" y="534"/>
      <point x="278.0" y="540" type="curve" smooth="yes"/>
      <point x="71.0" y="593" type="line" smooth="yes"/>
      <point x="49.0" y="599"/>
      <point x="37.0" y="583"/>
      <point x="37.0" y="560" type="curve" smooth="yes"/>
      <point x="37.0" y="454" type="line" smooth="yes"/>
      <point x="37.0" y="429"/>
      <point x="49.0" y="424"/>
      <point x="73.0" y="418" type="curve" smooth="yes"/>
    </contour>
    <contour>
      <point x="280.0" y="105" type="line" smooth="yes"/>
      <point x="302.0" y="99"/>
      <point x="314.0" y="115"/>
      <point x="314.0" y="138" type="curve" smooth="yes"/>
      <point x="314.0" y="244" type="line" smooth="yes"/>
      <point x="314.0" y="269"/>
      <point x="302.0" y="274"/>
      <point x="278.0" y="280" type="curve" smooth="yes"/>
      <point x="71.0" y="333" type="line" smooth="yes"/>
      <point x="49.0" y="339"/>
      <point x="37.0" y="323"/>
      <point x="37.0" y="300" type="curve" smooth="yes"/>
      <point x="37.0" y="194" type="line" smooth="yes"/>
      <point x="37.0" y="169"/>
      <point x="49.0" y="164"/>
      <point x="73.0" y="158" type="curve" smooth="yes"/>
    </contour>
  </outline>
</glyph>
<glyph name="bullet" format="1">
  <advance width="514"/>
  <unicode hex="2022"/>
  <outline>
    <contour>
      <point x="434.0" y="500" type="line" smooth="yes"/>
      <point x="434.0" y="525"/>
      <point x="423.0" y="536"/>
      <point x="398.0" y="536" type="curve" smooth="yes"/>
      <point x="116.0" y="536" type="line" smooth="yes"/>
      <point x="90.0" y="536"/>
      <point x="80.0" y="525"/>
      <point x="80.0" y="500" type="curve" smooth="yes"/>
      <point x="80.0" y="219" type="line" smooth="yes"/>
      <point x="80.0" y="194"/>
      <point x="90.0" y="183"/>
      <point x="116.0" y="183" type="curve" smooth="yes"/>
      <point x="398.0" y="183" type="line" smooth="yes"/>
      <point x="423.0" y="183"/>
      <point x="434.0" y="194"/>
      <point x="434.0" y="219" type="curve" smooth="yes"/>
    </contour>
  </outline>
</glyph>
<glyph name="fraction" format="1">
  <advance width="874"/>
  <unicode hex="2044"/>
  <outline>
    <contour>
      <point x="761.0" y="206" type="line" smooth="yes"/>
      <point x="786.0" y="201"/>
      <point x="797.0" y="217"/>
      <point x="797.0" y="242" type="curve" smooth="yes"/>
      <point x="797.0" y="357" type="line" smooth="yes"/>
      <point x="797.0" y="382"/>
      <point x="786.0" y="388"/>
      <point x="761.0" y="393" type="curve" smooth="yes"/>
      <point x="113.0" y="513" type="line" smooth="yes"/>
      <point x="88.0" y="518"/>
      <point x="77.0" y="502"/>
      <point x="77.0" y="477" type="curve" smooth="yes"/>
      <point x="77.0" y="362" type="line" smooth="yes"/>
      <point x="77.0" y="337"/>
      <point x="88.0" y="331"/>
      <point x="113.0" y="326" type="curve" smooth="yes"/>
    </contour>
  </outline>
</glyph>
<glyph name="trademark" format="1">
  <advance width="593"/>
  <unicode hex="2122"/>
  <outline>
    <contour>
      <point x="513.0" y="449" type="line"/>
      <point x="513.0" y="466"/>
      <point x="504.0" y="475"/>
      <point x="487.0" y="475" type="curve"/>
      <point x="297.0" y="475" type="line"/>
      <point x="346.0" y="501" type="line"/>
      <point x="361.0" y="508"/>
      <point x="368.0" y="519"/>
      <point x="368.0" y="535" type="curve"/>
      <point x="368.0" y="554" type="line"/>
      <point x="368.0" y="570"/>
      <point x="361.0" y="581"/>
      <point x="346.0" y="589" type="curve"/>
      <point x="297.0" y="615" type="line"/>
      <point x="487.0" y="615" type="line"/>
      <point x="504.0" y="615"/>
      <point x="513.0" y="622"/>
      <point x="513.0" y="641" type="curve"/>
      <point x="513.0" y="736" type="line"/>
      <point x="513.0" y="753"/>
      <point x="504.0" y="762"/>
      <point x="487.0" y="762" type="curve"/>
      <point x="106.0" y="762" type="line"/>
      <point x="88.0" y="762"/>
      <point x="80.0" y="753"/>
      <point x="80.0" y="736" type="curve"/>
      <point x="80.0" y="641" type="line"/>
      <point x="80.0" y="626"/>
      <point x="86.0" y="617"/>
      <point x="100.0" y="609" type="curve" smooth="yes"/>
      <point x="130.0" y="594"/>
      <point x="166.0" y="573"/>
      <point x="196.0" y="557" type="curve" smooth="yes"/>
      <point x="199.0" y="555"/>
      <point x="203.0" y="552"/>
      <point x="203.0" y="551" type="curve"/>
      <point x="203.0" y="546" type="line"/>
      <point x="203.0" y="543"/>
      <point x="201.0" y="542"/>
      <point x="196.0" y="539" type="curve" smooth="yes"/>
      <point x="166.0" y="521"/>
      <point x="131.0" y="503"/>
      <point x="100.0" y="486" type="curve" smooth="yes"/>
      <point x="87.0" y="478"/>
      <point x="80.0" y="469"/>
      <point x="80.0" y="454" type="curve"/>
      <point x="80.0" y="360" type="line"/>
      <point x="80.0" y="343"/>
      <point x="88.0" y="334"/>
      <point x="106.0" y="334" type="curve"/>
      <point x="487.0" y="334" type="line"/>
      <point x="504.0" y="334"/>
      <point x="513.0" y="343"/>
      <point x="513.0" y="360" type="curve"/>
    </contour>
    <contour>
      <point x="513.0" y="152" type="line"/>
      <point x="513.0" y="170"/>
      <point x="504.0" y="179"/>
      <point x="487.0" y="179" type="curve"/>
      <point x="203.0" y="179" type="line"/>
      <point x="203.0" y="260" type="line"/>
      <point x="203.0" y="278"/>
      <point x="194.0" y="287"/>
      <point x="177.0" y="287" type="curve"/>
      <point x="106.0" y="287" type="line"/>
      <point x="88.0" y="287"/>
      <point x="80.0" y="278"/>
      <point x="80.0" y="260" type="curve"/>
      <point x="80.0" y="-50" type="line"/>
      <point x="80.0" y="-69"/>
      <point x="88.0" y="-76"/>
      <point x="106.0" y="-76" type="curve"/>
      <point x="177.0" y="-76" type="line"/>
      <point x="194.0" y="-76"/>
      <point x="203.0" y="-69"/>
      <point x="203.0" y="-50" type="curve"/>
      <point x="203.0" y="32" type="line"/>
      <point x="487.0" y="32" type="line"/>
      <point x="504.0" y="32"/>
      <point x="513.0" y="39"/>
      <point x="513.0" y="57" type="curve"/>
    </contour>
  </outline>
</glyph>
<glyph name="arrowupright" format="1">
  <advance width="1000"/>
  <unicode hex="2197"/>
  <outline>
    <contour>
      <point x="752.0" y="249" type="curve" smooth="yes"/>
      <point x="618.0" y="367" type="line"/>
      <point x="739.0" y="489" type="line" smooth="yes"/>
      <point x="755.0" y="505"/>
      <point x="741.0" y="536"/>
      <point x="715.0" y="542" type="curve" smooth="yes"/>
      <point x="305.0" y="621" type="line" smooth="yes"/>
      <point x="283.0" y="626"/>
      <point x="265.0" y="626"/>
      <point x="250.0" y="611" type="curve"/>
      <point x="234.0" y="595"/>
      <point x="234.0" y="577"/>
      <point x="239.0" y="555" type="curve" smooth="yes"/>
      <point x="318.0" y="145" type="line" smooth="yes"/>
      <point x="324.0" y="119"/>
      <point x="355.0" y="105"/>
      <point x="371.0" y="121" type="curve" smooth="yes"/>
      <point x="493.0" y="242" type="line"/>
      <point x="611.0" y="108" type="line" smooth="yes"/>
      <point x="626.0" y="91"/>
      <point x="642.0" y="93"/>
      <point x="656.0" y="109" type="curve" smooth="yes"/>
      <point x="751.0" y="203" type="line" smooth="yes"/>
      <point x="767.0" y="218"/>
      <point x="769.0" y="233"/>
    </contour>
  </outline>
</glyph>
<glyph name="arrowdownright" format="1">
  <advance width="1000"/>
  <unicode hex="2198"/>
  <outline>
    <contour>
      <point x="389.0" y="108" type="curve" smooth="yes"/>
      <point x="507.0" y="242" type="line"/>
      <point x="629.0" y="121" type="line" smooth="yes"/>
      <point x="645.0" y="105"/>
      <point x="676.0" y="119"/>
      <point x="682.0" y="145" type="curve" smooth="yes"/>
      <point x="761.0" y="555" type="line" smooth="yes"/>
      <point x="766.0" y="577"/>
      <point x="766.0" y="595"/>
      <point x="751.0" y="610" type="curve"/>
      <point x="735.0" y="626"/>
      <point x="717.0" y="626"/>
      <point x="695.0" y="621" type="curve" smooth="yes"/>
      <point x="285.0" y="542" type="line" smooth="yes"/>
      <point x="258.0" y="536"/>
      <point x="245.0" y="505"/>
      <point x="261.0" y="489" type="curve" smooth="yes"/>
      <point x="382.0" y="367" type="line"/>
      <point x="248.0" y="249" type="line" smooth="yes"/>
      <point x="231.0" y="234"/>
      <point x="233.0" y="218"/>
      <point x="249.0" y="204" type="curve" smooth="yes"/>
      <point x="342.0" y="109" type="line" smooth="yes"/>
      <point x="358.0" y="93"/>
      <point x="373.0" y="91"/>
    </contour>
  </outline>
</glyph>
<glyph name="arrowdownleft" format="1">
  <advance width="1000"/>
  <unicode hex="2199"/>
  <outline>
    <contour>
      <point x="342.0" y="611" type="curve" smooth="yes"/>
      <point x="249.0" y="516" type="line" smooth="yes"/>
      <point x="233.0" y="502"/>
      <point x="231.0" y="486"/>
      <point x="248.0" y="471" type="curve" smooth="yes"/>
      <point x="382.0" y="353" type="line"/>
      <point x="261.0" y="231" type="line" smooth="yes"/>
      <point x="245.0" y="215"/>
      <point x="258.0" y="184"/>
      <point x="285.0" y="178" type="curve" smooth="yes"/>
      <point x="695.0" y="99" type="line" smooth="yes"/>
      <point x="717.0" y="94"/>
      <point x="735.0" y="94"/>
      <point x="751.0" y="110" type="curve"/>
      <point x="766.0" y="125"/>
      <point x="766.0" y="143"/>
      <point x="761.0" y="165" type="curve" smooth="yes"/>
      <point x="682.0" y="575" type="line" smooth="yes"/>
      <point x="676.0" y="601"/>
      <point x="645.0" y="615"/>
      <point x="629.0" y="599" type="curve" smooth="yes"/>
      <point x="507.0" y="478" type="line"/>
      <point x="389.0" y="612" type="line" smooth="yes"/>
      <point x="373.0" y="629"/>
      <point x="358.0" y="627"/>
    </contour>
  </outline>
</glyph>
<glyph name="uni21AB" format="1">
  <advance width="1000"/>
  <unicode hex="21AB"/>
  <outline>
    <contour>
      <point x="894.0" y="372" type="line" smooth="yes"/>
      <point x="909.0" y="394"/>
      <point x="895.0" y="426"/>
      <point x="875.0" y="424" type="curve" smooth="yes"/>
      <point x="717.0" y="383" type="line"/>
      <point x="717.0" y="485" type="line" smooth="yes"/>
      <point x="717.0" y="653"/>
      <point x="646.0" y="703"/>
      <point x="539.0" y="703" type="curve" smooth="yes"/>
      <point x="278.0" y="703" type="line" smooth="yes"/>
      <point x="171.0" y="703"/>
      <point x="100.0" y="653"/>
      <point x="100.0" y="485" type="curve" smooth="yes"/>
      <point x="100.0" y="146" type="line" smooth="yes"/>
      <point x="100.0" y="126"/>
      <point x="110.0" y="116"/>
      <point x="131.0" y="116" type="curve" smooth="yes"/>
      <point x="236.0" y="116" type="line" smooth="yes"/>
      <point x="259.0" y="116"/>
      <point x="266.0" y="126"/>
      <point x="266.0" y="146" type="curve" smooth="yes"/>
      <point x="266.0" y="469" type="line" smooth="yes"/>
      <point x="266.0" y="514"/>
      <point x="283.0" y="536"/>
      <point x="327.0" y="536" type="curve" smooth="yes"/>
      <point x="490.0" y="536" type="line" smooth="yes"/>
      <point x="534.0" y="536"/>
      <point x="551.0" y="514"/>
      <point x="551.0" y="469" type="curve" smooth="yes"/>
      <point x="551.0" y="383" type="line"/>
      <point x="392.0" y="424" type="line" smooth="yes"/>
      <point x="372.0" y="426"/>
      <point x="359.0" y="394"/>
      <point x="373.0" y="372" type="curve" smooth="yes"/>
      <point x="591.0" y="48" type="line" smooth="yes"/>
      <point x="602.0" y="30"/>
      <point x="614.0" y="18"/>
      <point x="634.0" y="18" type="curve"/>
      <point x="654.0" y="18"/>
      <point x="666.0" y="30"/>
      <point x="676.0" y="48" type="curve" smooth="yes"/>
    </contour>
  </outline>
</glyph>
<glyph name="uni21B1" format="1">
  <advance width="1020"/>
  <unicode hex="21B1"/>
  <outline>
    <contour>
      <point x="343.0" y="266" type="line" smooth="yes"/>
      <point x="343.0" y="98"/>
      <point x="414.0" y="48"/>
      <point x="521.0" y="48" type="curve" smooth="yes"/>
      <point x="830.0" y="48" type="line" smooth="yes"/>
      <point x="850.0" y="48"/>
      <point x="860.0" y="57"/>
      <point x="860.0" y="79" type="curve" smooth="yes"/>
      <point x="860.0" y="184" type="line" smooth="yes"/>
      <point x="860.0" y="206"/>
      <point x="850.0" y="217"/>
      <point x="830.0" y="215" type="curve" smooth="yes"/>
      <point x="570.0" y="215" type="line" smooth="yes"/>
      <point x="526.0" y="215"/>
      <point x="509.0" y="237"/>
      <point x="509.0" y="282" type="curve" smooth="yes"/>
      <point x="509.0" y="348" type="line"/>
      <point x="668.0" y="307" type="line" smooth="yes"/>
      <point x="688.0" y="305"/>
      <point x="701.0" y="337"/>
      <point x="687.0" y="359" type="curve" smooth="yes"/>
      <point x="469.0" y="683" type="line" smooth="yes"/>
      <point x="458.0" y="701"/>
      <point x="446.0" y="713"/>
      <point x="426.0" y="713" type="curve"/>
      <point x="406.0" y="713"/>
      <point x="394.0" y="701"/>
      <point x="384.0" y="683" type="curve" smooth="yes"/>
      <point x="166.0" y="359" type="line" smooth="yes"/>
      <point x="151.0" y="337"/>
      <point x="165.0" y="305"/>
      <point x="185.0" y="307" type="curve" smooth="yes"/>
      <point x="343.0" y="348" type="line"/>
    </contour>
  </outline>
</glyph>
<glyph name="uni21B3" format="1">
  <advance width="1020"/>
  <unicode hex="21B3"/>
  <outline>
    <contour>
      <point x="677.0" y="246" type="curve" smooth="yes"/>
      <point x="677.0" y="328" type="line"/>
      <point x="835.0" y="287" type="line" smooth="yes"/>
      <point x="855.0" y="285"/>
      <point x="869.0" y="317"/>
      <point x="854.0" y="339" type="curve" smooth="yes"/>
      <point x="636.0" y="663" type="line" smooth="yes"/>
      <point x="626.0" y="681"/>
      <point x="614.0" y="693"/>
      <point x="594.0" y="693" type="curve"/>
      <point x="574.0" y="693"/>
      <point x="562.0" y="681"/>
      <point x="551.0" y="663" type="curve" smooth="yes"/>
      <point x="333.0" y="339" type="line" smooth="yes"/>
      <point x="319.0" y="317"/>
      <point x="332.0" y="285"/>
      <point x="352.0" y="287" type="curve" smooth="yes"/>
      <point x="511.0" y="328" type="line"/>
      <point x="511.0" y="262" type="line" smooth="yes"/>
      <point x="511.0" y="217"/>
      <point x="494.0" y="195"/>
      <point x="450.0" y="195" type="curve" smooth="yes"/>
      <point x="190.0" y="195" type="line" smooth="yes"/>
      <point x="170.0" y="197"/>
      <point x="160.0" y="186"/>
      <point x="160.0" y="164" type="curve" smooth="yes"/>
      <point x="160.0" y="59" type="line" smooth="yes"/>
      <point x="160.0" y="37"/>
      <point x="170.0" y="28"/>
      <point x="190.0" y="28" type="curve" smooth="yes"/>
      <point x="499.0" y="28" type="line" smooth="yes"/>
      <point x="606.0" y="28"/>
      <point x="677.0" y="78"/>
    </contour>
  </outline>
</glyph>
<glyph name="lessequal" format="1">
  <advance width="872"/>
  <unicode hex="2264"/>
  <outline>
    <contour>
      <point x="554" y="210" type="curve"/>
      <point x="606" y="392" type="line"/>
      <point x="606" y="119" type="line" smooth="yes"/>
      <point x="606" y="94"/>
      <point x="617" y="83"/>
      <point x="642" y="83" type="curve" smooth="yes"/>
      <point x="756" y="83" type="line" smooth="yes"/>
      <point x="782" y="83"/>
      <point x="792" y="94"/>
      <point x="792" y="119" type="curve"/>
      <point x="792" y="591" type="line" smooth="yes"/>
      <point x="792" y="616"/>
      <point x="782" y="627"/>
      <point x="756" y="627" type="curve" smooth="yes"/>
      <point x="500" y="627" type="line" smooth="yes"/>
      <point x="474" y="627"/>
      <point x="463" y="616"/>
      <point x="459" y="591" type="curve" smooth="yes"/>
      <point x="382" y="304" type="line" smooth="yes"/>
      <point x="379" y="290"/>
      <point x="375" y="287"/>
      <point x="363" y="287" type="curve" smooth="yes"/>
      <point x="351" y="287"/>
      <point x="347" y="290"/>
      <point x="344" y="304" type="curve" smooth="yes"/>
      <point x="267" y="591" type="line" smooth="yes"/>
      <point x="263" y="616"/>
      <point x="252" y="627"/>
      <point x="226" y="627" type="curve" smooth="yes"/>
      <point x="94" y="627" type="line" smooth="yes"/>
      <point x="68" y="627"/>
      <point x="58" y="616"/>
      <point x="63" y="591" type="curve" smooth="yes"/>
      <point x="172" y="210" type="line" smooth="yes"/>
      <point x="196" y="127"/>
      <point x="228" y="83"/>
      <point x="327" y="83" type="curve" smooth="yes"/>
      <point x="399" y="83" type="line" smooth="yes"/>
      <point x="498" y="83"/>
      <point x="530" y="127"/>
    </contour>
  </outline>
</glyph>
<glyph name="uni25DC" format="1">
  <advance width="1280"/>
  <unicode hex="25DC"/>
  <outline>
    <contour>
      <point x="136.0" y="900.0" type="line" smooth="yes"/>
      <point x="111.0" y="900.0"/>
      <point x="100.0" y="889.0"/>
      <point x="100.0" y="864.0" type="curve" smooth="yes"/>
      <point x="100.0" y="731.0" type="line" smooth="yes"/>
      <point x="100.0" y="121.0"/>
      <point x="401.0" y="-180.0"/>
      <point x="1011.0" y="-180.0" type="curve" smooth="yes"/>
      <point x="1144.0" y="-180.0" type="line" smooth="yes"/>
      <point x="1169.0" y="-180.0"/>
      <point x="1180.0" y="-169.0"/>
      <point x="1180.0" y="-144.0" type="curve" smooth="yes"/>
      <point x="1180.0" y="870.0" type="line" smooth="yes"/>
      <point x="1180.0" y="887.0"/>
      <point x="1167.0" y="900.0"/>
      <point x="1150.0" y="900.0" type="curve" smooth="yes"/>
    </contour>
  </outline>
</glyph>
<glyph name="uni261F" format="1">
  <advance width="999"/>
  <unicode hex="261F"/>
  <outline>
    <contour>
      <point x="244.0" y="115" type="curve"/>
      <point x="211.0" y="115" type="line" smooth="yes"/>
      <point x="201.0" y="115"/>
      <point x="193.0" y="123"/>
      <point x="193.0" y="134" type="curve" smooth="yes"/>
      <point x="193.0" y="586" type="line" smooth="yes"/>
      <point x="193.0" y="598"/>
      <point x="201.0" y="605"/>
      <point x="211.0" y="605" type="curve"/>
      <point x="244.0" y="605" type="line"/>
      <point x="254.0" y="605"/>
      <point x="262.0" y="598"/>
      <point x="262.0" y="586" type="curve" smooth="yes"/>
      <point x="262.0" y="134" type="line" smooth="yes"/>
      <point x="262.0" y="123"/>
      <point x="254.0" y="115"/>
    </contour>
    <contour>
      <point x="360.0" y="176" type="line" smooth="yes"/>
      <point x="343.0" y="176"/>
      <point x="327.0" y="181"/>
      <point x="318.0" y="187" type="curve" smooth="yes"/>
      <point x="283.0" y="206" type="line"/>
      <point x="283.0" y="527" type="line"/>
      <point x="479.0" y="565" type="line" smooth="yes"/>
      <point x="493.0" y="567"/>
      <point x="515.0" y="567"/>
      <point x="534.0" y="566" type="curve" smooth="yes"/>
      <point x="828.0" y="545" type="line" smooth="yes"/>
      <point x="838.0" y="544"/>
      <point x="848.0" y="537"/>
      <point x="848.0" y="523" type="curve" smooth="yes"/>
      <point x="848.0" y="493" type="line" smooth="yes"/>
      <point x="848.0" y="480"/>
      <point x="839.0" y="473"/>
      <point x="824.0" y="473" type="curve" smooth="yes"/>
      <point x="556.0" y="473" type="line"/>
      <point x="556.0" y="452" type="line" smooth="yes"/>
      <point x="643.0" y="452" type="line"/>
      <point x="654.0" y="453"/>
      <point x="659.0" y="447"/>
      <point x="659.0" y="436" type="curve" smooth="yes"/>
      <point x="659.0" y="402" type="line" smooth="yes"/>
      <point x="659.0" y="388"/>
      <point x="651.0" y="383"/>
      <point x="637.0" y="382" type="curve" smooth="yes"/>
      <point x="539.0" y="375" type="line"/>
      <point x="539.0" y="354" type="line" smooth="yes"/>
      <point x="619.0" y="360" type="line"/>
      <point x="629.0" y="360"/>
      <point x="634.0" y="353"/>
      <point x="634.0" y="340" type="curve" smooth="yes"/>
      <point x="634.0" y="304" type="line" smooth="yes"/>
      <point x="634.0" y="291"/>
      <point x="627.0" y="285"/>
      <point x="612.0" y="284" type="curve" smooth="yes"/>
      <point x="520.0" y="277" type="line"/>
      <point x="520.0" y="256" type="line" smooth="yes"/>
      <point x="599.0" y="262" type="line"/>
      <point x="599.0" y="262" type="line"/>
      <point x="609.0" y="262"/>
      <point x="612.0" y="254"/>
      <point x="612.0" y="244" type="curve" smooth="yes"/>
      <point x="612.0" y="206" type="line" smooth="yes"/>
      <point x="612.0" y="195"/>
      <point x="603.0" y="187"/>
      <point x="592.0" y="187" type="curve" smooth="yes"/>
    </contour>
    <contour>
      <point x="283.0" y="132" type="curve" smooth="yes"/>
      <point x="283.0" y="181" type="line"/>
      <point x="308.0" y="168" type="line" smooth="yes"/>
      <point x="318.0" y="163"/>
      <point x="338.0" y="155"/>
      <point x="360.0" y="155" type="curve" smooth="yes"/>
      <point x="593.0" y="165" type="line" smooth="yes"/>
      <point x="616.0" y="166"/>
      <point x="633.0" y="183"/>
      <point x="633.0" y="206" type="curve" smooth="yes"/>
      <point x="633.0" y="246" type="line"/>
      <point x="633.0" y="252"/>
      <point x="632.0" y="260"/>
      <point x="628.0" y="265" type="curve"/>
      <point x="647.0" y="270"/>
      <point x="655.0" y="283"/>
      <point x="655.0" y="304" type="curve" smooth="yes"/>
      <point x="655.0" y="343" type="line"/>
      <point x="655.0" y="351"/>
      <point x="653.0" y="357"/>
      <point x="649.0" y="362" type="curve"/>
      <point x="670.0" y="366"/>
      <point x="680.0" y="380"/>
      <point x="680.0" y="402" type="curve" smooth="yes"/>
      <point x="680.0" y="438" type="line" smooth="yes"/>
      <point x="680.0" y="443"/>
      <point x="679.0" y="448"/>
      <point x="677.0" y="452" type="curve"/>
      <point x="824.0" y="452" type="line" smooth="yes"/>
      <point x="854.0" y="452"/>
      <point x="869.0" y="467"/>
      <point x="869.0" y="493" type="curve" smooth="yes"/>
      <point x="869.0" y="523" type="line" smooth="yes"/>
      <point x="869.0" y="550"/>
      <point x="855.0" y="565"/>
      <point x="830.0" y="566" type="curve" smooth="yes"/>
      <point x="536.0" y="587" type="line" smooth="yes"/>
      <point x="515.0" y="588"/>
      <point x="491.0" y="588"/>
      <point x="475.0" y="585" type="curve" smooth="yes"/>
      <point x="283.0" y="549" type="line"/>
      <point x="283.0" y="588" type="line" smooth="yes"/>
      <point x="283.0" y="611"/>
      <point x="269.0" y="626"/>
      <point x="244.0" y="626" type="curve" smooth="yes"/>
      <point x="169.0" y="626" type="line" smooth="yes"/>
      <point x="144.0" y="626"/>
      <point x="130.0" y="614"/>
      <point x="130.0" y="586" type="curve" smooth="yes"/>
      <point x="130.0" y="134" type="line" smooth="yes"/>
      <point x="130.0" y="108"/>
      <point x="144.0" y="94"/>
      <point x="169.0" y="94" type="curve" smooth="yes"/>
      <point x="244.0" y="94" type="line" smooth="yes"/>
      <point x="269.0" y="94"/>
      <point x="283.0" y="109"/>
    </contour>
  </outline>
</glyph>
<glyph name="uni2B24" format="1">
  <advance width="1280"/>
  <unicode hex="2B24"/>
  <outline>
    <contour>
      <point x="70" y="350" type="curve" smooth="yes"/>
      <point x="70" y="15"/>
      <point x="305" y="-220"/>
      <point x="640" y="-220" type="curve"/>
      <point x="975" y="-220"/>
      <point x="1210" y="15"/>
      <point x="1210" y="350" type="curve" smooth="yes"/>
      <point x="1210" y="685"/>
      <point x="975" y="920"/>
      <point x="640" y="920" type="curve"/>
      <point x="305" y="920"/>
      <point x="70" y="685"/>
    </contour>
  </outline>
</glyph>
<glyph name="Aring.salt" format="1">
  <advance width="1012"/>
  <unicode hex="E106"/>
  <outline>
    <contour>
      <point x="909.0" y="60" type="line" smooth="yes"/>
      <point x="934.0" y="60"/>
      <point x="945.0" y="71"/>
      <point x="945.0" y="96" type="curve" smooth="yes"/>
      <point x="945.0" y="243" type="line" smooth="yes"/>
      <point x="945.0" y="268"/>
      <point x="934.0" y="279"/>
      <point x="909.0" y="279" type="curve" smooth="yes"/>
      <point x="779.0" y="279" type="line"/>
      <point x="779.0" y="436" type="line"/>
      <point x="909.0" y="436" type="line" smooth="yes"/>
      <point x="934.0" y="436"/>
      <point x="945.0" y="447"/>
      <point x="945.0" y="472" type="curve" smooth="yes"/>
      <point x="945.0" y="624" type="line" smooth="yes"/>
      <point x="945.0" y="649"/>
      <point x="934.0" y="660"/>
      <point x="909.0" y="660" type="curve" smooth="yes"/>
      <point x="453.0" y="660" type="line" smooth="yes"/>
      <point x="376.0" y="660"/>
      <point x="314.0" y="640"/>
      <point x="280.0" y="561" type="curve"/>
      <point x="260.0" y="570"/>
      <point x="238.0" y="574"/>
      <point x="213.0" y="574" type="curve" smooth="yes"/>
      <point x="155.0" y="574" type="line" smooth="yes"/>
      <point x="70.0" y="574"/>
      <point x="12.0" y="531"/>
      <point x="12.0" y="357" type="curve" smooth="yes"/>
      <point x="12.0" y="183"/>
      <point x="70.0" y="140"/>
      <point x="155.0" y="140" type="curve" smooth="yes"/>
      <point x="213.0" y="140" type="line" smooth="yes"/>
      <point x="239.0" y="140"/>
      <point x="262.0" y="144"/>
      <point x="282.0" y="154" type="curve"/>
      <point x="317.0" y="79"/>
      <point x="377.0" y="60"/>
      <point x="453.0" y="60" type="curve" smooth="yes"/>
    </contour>
    <contour>
      <point x="487" y="279" type="line" smooth="yes"/>
      <point x="460" y="279"/>
      <point x="440" y="287"/>
      <point x="440" y="358" type="curve" smooth="yes"/>
      <point x="440" y="428"/>
      <point x="460" y="436"/>
      <point x="487" y="436" type="curve" smooth="yes"/>
      <point x="596" y="436" type="line"/>
      <point x="596" y="279" type="line"/>
    </contour>
    <contour>
      <point x="220.0" y="417" type="line" smooth="yes"/>
      <point x="249.0" y="417"/>
      <point x="263.0" y="408"/>
      <point x="263.0" y="358" type="curve" smooth="yes"/>
      <point x="263.0" y="309"/>
      <point x="249.0" y="301"/>
      <point x="220.0" y="301" type="curve" smooth="yes"/>
      <point x="185.0" y="301" type="line" smooth="yes"/>
      <point x="159.0" y="301"/>
      <point x="145.0" y="309"/>
      <point x="145.0" y="358" type="curve" smooth="yes"/>
      <point x="145.0" y="408"/>
      <point x="159.0" y="417"/>
      <point x="185.0" y="417" type="curve" smooth="yes"/>
    </contour>
  </outline>
</glyph>
<glyph name="Aogonek.salt" format="1">
  <advance width="955"/>
  <unicode hex="E109"/>
  <outline>
    <contour>
      <point x="716" y="59" type="line"/>
      <point x="741" y="59"/>
      <point x="752" y="70"/>
      <point x="752" y="95" type="curve" smooth="yes"/>
      <point x="752" y="242" type="line" smooth="yes"/>
      <point x="752" y="267"/>
      <point x="741" y="278"/>
      <point x="716" y="278" type="curve" smooth="yes"/>
      <point x="587" y="278" type="line"/>
      <point x="587" y="437" type="line"/>
      <point x="696" y="437" type="line"/>
      <point x="803" y="418" type="line" smooth="yes"/>
      <point x="896" y="404"/>
      <point x="938" y="433"/>
      <point x="938" y="519" type="curve" smooth="yes"/>
      <point x="938" y="630" type="line" smooth="yes"/>
      <point x="938" y="656"/>
      <point x="930" y="663"/>
      <point x="904" y="663" type="curve" smooth="yes"/>
      <point x="832" y="663" type="line" smooth="yes"/>
      <point x="806" y="663"/>
      <point x="798" y="655"/>
      <point x="798" y="627" type="curve" smooth="yes"/>
      <point x="798" y="586" type="line"/>
      <point x="752" y="593" type="line"/>
      <point x="752" y="625" type="line" smooth="yes"/>
      <point x="752" y="650"/>
      <point x="741" y="661"/>
      <point x="716" y="661" type="curve" smooth="yes"/>
      <point x="261" y="661" type="line" smooth="yes"/>
      <point x="140" y="661"/>
      <point x="57" y="608"/>
      <point x="57" y="359" type="curve" smooth="yes"/>
      <point x="57" y="111"/>
      <point x="140" y="59"/>
      <point x="261" y="59" type="curve" smooth="yes"/>
    </contour>
    <contour>
      <point x="295" y="278" type="line" smooth="yes"/>
      <point x="268" y="278"/>
      <point x="248" y="287"/>
      <point x="248" y="358" type="curve" smooth="yes"/>
      <point x="248" y="428"/>
      <point x="268" y="437"/>
      <point x="295" y="437" type="curve"/>
      <point x="404" y="437" type="line"/>
      <point x="404" y="278" type="line"/>
    </contour>
  </outline>
</glyph>
<glyph name="Eogonek.salt" format="1">
  <advance width="955"/>
  <unicode hex="E112"/>
  <outline>
    <contour>
      <point x="548" y="56" type="line" smooth="yes"/>
      <point x="669" y="56"/>
      <point x="752" y="113"/>
      <point x="752" y="302" type="curve"/>
      <point x="752" y="414" type="line"/>
      <point x="803" y="405" type="line" smooth="yes"/>
      <point x="896" y="391"/>
      <point x="938" y="420"/>
      <point x="938" y="506" type="curve" smooth="yes"/>
      <point x="938" y="617" type="line" smooth="yes"/>
      <point x="938" y="643"/>
      <point x="930" y="650"/>
      <point x="904" y="650" type="curve" smooth="yes"/>
      <point x="832" y="650" type="line" smooth="yes"/>
      <point x="806" y="650"/>
      <point x="798" y="642"/>
      <point x="798" y="614" type="curve" smooth="yes"/>
      <point x="798" y="573" type="line"/>
      <point x="752" y="580" type="line"/>
      <point x="752" y="614" type="line" smooth="yes"/>
      <point x="752" y="639"/>
      <point x="741" y="650"/>
      <point x="716" y="650" type="curve" smooth="yes"/>
      <point x="603" y="650" type="line" smooth="yes"/>
      <point x="578" y="650"/>
      <point x="567" y="639"/>
      <point x="567" y="614" type="curve" smooth="yes"/>
      <point x="567" y="341" type="line"/>
      <point x="567" y="289"/>
      <point x="547" y="280"/>
      <point x="519" y="280" type="curve" smooth="yes"/>
      <point x="491" y="280" type="line"/>
      <point x="491" y="533" type="line" smooth="yes"/>
      <point x="491" y="558"/>
      <point x="480" y="569"/>
      <point x="455" y="569" type="curve" smooth="yes"/>
      <point x="360" y="569" type="line" smooth="yes"/>
      <point x="334" y="569"/>
      <point x="324" y="558"/>
      <point x="324" y="533" type="curve" smooth="yes"/>
      <point x="324" y="280" type="line"/>
      <point x="307" y="280" type="line" smooth="yes"/>
      <point x="281" y="280"/>
      <point x="257" y="289"/>
      <point x="257" y="341" type="curve"/>
      <point x="257" y="614" type="line" smooth="yes"/>
      <point x="257" y="639"/>
      <point x="246" y="650"/>
      <point x="221" y="650" type="curve" smooth="yes"/>
      <point x="108" y="650" type="line" smooth="yes"/>
      <point x="83" y="650"/>
      <point x="72" y="639"/>
      <point x="72" y="614" type="curve" smooth="yes"/>
      <point x="72" y="302" type="line"/>
      <point x="72" y="113"/>
      <point x="155" y="56"/>
      <point x="277" y="56" type="curve" smooth="yes"/>
    </contour>
  </outline>
</glyph>
<glyph name="Iogonek.salt" format="1">
  <advance width="938"/>
  <unicode hex="E11C"/>
  <outline>
    <contour>
      <point x="921" y="327" type="curve" smooth="yes"/>
      <point x="921" y="438" type="line" smooth="yes"/>
      <point x="921" y="464"/>
      <point x="913" y="471"/>
      <point x="887" y="471" type="curve" smooth="yes"/>
      <point x="815" y="471" type="line" smooth="yes"/>
      <point x="789" y="471"/>
      <point x="781" y="463"/>
      <point x="781" y="435" type="curve" smooth="yes"/>
      <point x="781" y="394" type="line"/>
      <point x="735" y="401" type="line"/>
      <point x="735" y="439" type="line" smooth="yes"/>
      <point x="735" y="464"/>
      <point x="724" y="475"/>
      <point x="699" y="475" type="curve" smooth="yes"/>
      <point x="91" y="475" type="line" smooth="yes"/>
      <point x="66" y="475"/>
      <point x="55" y="464"/>
      <point x="55" y="439" type="curve" smooth="yes"/>
      <point x="55" y="280" type="line" smooth="yes"/>
      <point x="55" y="255"/>
      <point x="66" y="244"/>
      <point x="91" y="244" type="curve"/>
      <point x="685" y="244" type="line"/>
      <point x="786" y="226" type="line" smooth="yes"/>
      <point x="879" y="212"/>
      <point x="921" y="241"/>
    </contour>
  </outline>
</glyph>
<glyph name="Lslash.salt" format="1">
  <advance width="855"/>
  <unicode hex="E123"/>
  <outline>
    <contour>
      <point x="492" y="38" type="curve" smooth="yes"/>
      <point x="488" y="65" type="line"/>
      <point x="739" y="65" type="line" smooth="yes"/>
      <point x="764" y="65"/>
      <point x="775" y="76"/>
      <point x="775" y="101" type="curve" smooth="yes"/>
      <point x="775" y="619" type="line" smooth="yes"/>
      <point x="775" y="644"/>
      <point x="764" y="655"/>
      <point x="739" y="655" type="curve" smooth="yes"/>
      <point x="618" y="655" type="line" smooth="yes"/>
      <point x="593" y="655"/>
      <point x="582" y="644"/>
      <point x="582" y="619" type="curve" smooth="yes"/>
      <point x="582" y="292" type="line"/>
      <point x="451" y="292" type="line"/>
      <point x="442" y="346" type="line" smooth="yes"/>
      <point x="438" y="371"/>
      <point x="432" y="382"/>
      <point x="406" y="382" type="curve" smooth="yes"/>
      <point x="299" y="382" type="line" smooth="yes"/>
      <point x="273" y="382"/>
      <point x="259" y="371"/>
      <point x="263" y="346" type="curve" smooth="yes"/>
      <point x="272" y="292" type="line"/>
      <point x="91" y="292" type="line" smooth="yes"/>
      <point x="66" y="292"/>
      <point x="55" y="281"/>
      <point x="55" y="256" type="curve" smooth="yes"/>
      <point x="55" y="101" type="line" smooth="yes"/>
      <point x="55" y="76"/>
      <point x="66" y="65"/>
      <point x="91" y="65" type="curve" smooth="yes"/>
      <point x="309" y="65" type="line"/>
      <point x="313" y="38" type="line" smooth="yes"/>
      <point x="317" y="13"/>
      <point x="324" y="2"/>
      <point x="349" y="2" type="curve" smooth="yes"/>
      <point x="456" y="2" type="line" smooth="yes"/>
      <point x="482" y="2"/>
      <point x="496" y="13"/>
    </contour>
  </outline>
</glyph>
<glyph name="N.salt" format="1">
  <advance width="860"/>
  <unicode hex="E125"/>
  <outline>
    <contour>
      <point x="261.0" y="60" type="curve" smooth="yes"/>
      <point x="756.0" y="60" type="line" smooth="yes"/>
      <point x="781.0" y="60"/>
      <point x="793.0" y="71"/>
      <point x="793.0" y="96" type="curve" smooth="yes"/>
      <point x="793.0" y="248" type="line" smooth="yes"/>
      <point x="793.0" y="274"/>
      <point x="781.0" y="284"/>
      <point x="756.0" y="284" type="curve" smooth="yes"/>
      <point x="300.0" y="284" type="line" smooth="yes"/>
      <point x="273.0" y="284"/>
      <point x="253.0" y="296"/>
      <point x="253.0" y="358" type="curve" smooth="yes"/>
      <point x="253.0" y="419"/>
      <point x="273.0" y="431"/>
      <point x="300.0" y="431" type="curve" smooth="yes"/>
      <point x="756.0" y="431" type="line" smooth="yes"/>
      <point x="781.0" y="431"/>
      <point x="793.0" y="442"/>
      <point x="793.0" y="467" type="curve" smooth="yes"/>
      <point x="793.0" y="624" type="line" smooth="yes"/>
      <point x="793.0" y="649"/>
      <point x="781.0" y="660"/>
      <point x="756.0" y="660" type="curve"/>
      <point x="261.0" y="660" type="line" smooth="yes"/>
      <point x="139.0" y="660"/>
      <point x="57.0" y="608"/>
      <point x="57.0" y="360" type="curve" smooth="yes"/>
      <point x="57.0" y="112"/>
      <point x="139.0" y="60"/>
    </contour>
    <contour>
      <point x="46.0" y="369.0" type="move" name="top"/>
    </contour>
    <contour>
      <point x="793.0" y="369.0" type="move" name="bottom"/>
    </contour>
  </outline>
</glyph>
<glyph name="Ncommaaccent.salt" format="1">
  <advance width="982"/>
  <unicode hex="E128"/>
  <outline>
    <contour>
      <point x="251" y="60" type="curve" smooth="yes"/>
      <point x="616" y="60" type="line" smooth="yes"/>
      <point x="641" y="60"/>
      <point x="652" y="71"/>
      <point x="652" y="96" type="curve" smooth="yes"/>
      <point x="652" y="248" type="line" smooth="yes"/>
      <point x="652" y="274"/>
      <point x="641" y="284"/>
      <point x="616" y="284" type="curve" smooth="yes"/>
      <point x="290" y="284" type="line" smooth="yes"/>
      <point x="263" y="284"/>
      <point x="243" y="296"/>
      <point x="243" y="358" type="curve" smooth="yes"/>
      <point x="243" y="419"/>
      <point x="263" y="431"/>
      <point x="290" y="431" type="curve" smooth="yes"/>
      <point x="616" y="431" type="line" smooth="yes"/>
      <point x="641" y="431"/>
      <point x="652" y="442"/>
      <point x="652" y="467" type="curve" smooth="yes"/>
      <point x="652" y="624" type="line" smooth="yes"/>
      <point x="652" y="649"/>
      <point x="641" y="660"/>
      <point x="616" y="660" type="curve"/>
      <point x="251" y="660" type="line" smooth="yes"/>
      <point x="129" y="660"/>
      <point x="47" y="608"/>
      <point x="47" y="360" type="curve" smooth="yes"/>
      <point x="47" y="112"/>
      <point x="129" y="60"/>
    </contour>
    <contour>
      <point x="957" y="352" type="line" smooth="yes"/>
      <point x="957" y="428"/>
      <point x="915" y="477"/>
      <point x="829" y="477" type="curve" smooth="yes"/>
      <point x="717" y="477" type="line" smooth="yes"/>
      <point x="686" y="477"/>
      <point x="677" y="468"/>
      <point x="677" y="440" type="curve" smooth="yes"/>
      <point x="677" y="282" type="line" smooth="yes"/>
      <point x="677" y="254"/>
      <point x="686" y="245"/>
      <point x="717" y="245" type="curve" smooth="yes"/>
      <point x="796" y="245" type="line" smooth="yes"/>
      <point x="826" y="245"/>
      <point x="835" y="254"/>
      <point x="835" y="282" type="curve" smooth="yes"/>
      <point x="835" y="368" type="line"/>
      <point x="848" y="368" type="line" smooth="yes"/>
      <point x="863" y="368"/>
      <point x="872" y="360"/>
      <point x="872" y="345" type="curve" smooth="yes"/>
      <point x="872" y="286" type="line" smooth="yes"/>
      <point x="872" y="265"/>
      <point x="881" y="256"/>
      <point x="902" y="256" type="curve" smooth="yes"/>
      <point x="926" y="256" type="line" smooth="yes"/>
      <point x="948" y="256"/>
      <point x="957" y="265"/>
      <point x="957" y="286" type="curve" smooth="yes"/>
    </contour>
  </outline>
</glyph>
<glyph name="W.salt" format="1">
  <advance width="882"/>
  <unicode hex="E12A"/>
  <outline>
    <contour>
      <point x="611.0" y="11" type="line"/>
      <point x="733.0" y="11"/>
      <point x="815.0" y="59"/>
      <point x="815.0" y="210" type="curve" smooth="yes"/>
      <point x="815.0" y="285"/>
      <point x="797.0" y="332"/>
      <point x="765.0" y="360" type="curve"/>
      <point x="797.0" y="387"/>
      <point x="815.0" y="434"/>
      <point x="815.0" y="509" type="curve" smooth="yes"/>
      <point x="815.0" y="660"/>
      <point x="733.0" y="708"/>
      <point x="611.0" y="708" type="curve"/>
      <point x="116.0" y="708" type="line" smooth="yes"/>
      <point x="91.0" y="708"/>
      <point x="80.0" y="697"/>
      <point x="80.0" y="672" type="curve" smooth="yes"/>
      <point x="80.0" y="555" type="line" smooth="yes"/>
      <point x="80.0" y="529"/>
      <point x="91.0" y="519"/>
      <point x="116.0" y="519" type="curve" smooth="yes"/>
      <point x="579.0" y="519" type="line" smooth="yes"/>
      <point x="606.0" y="519"/>
      <point x="619.0" y="512"/>
      <point x="619.0" y="486" type="curve" smooth="yes"/>
      <point x="619.0" y="460"/>
      <point x="606.0" y="454"/>
      <point x="579.0" y="454" type="curve" smooth="yes"/>
      <point x="116.0" y="454" type="line" smooth="yes"/>
      <point x="91.0" y="454"/>
      <point x="80.0" y="443"/>
      <point x="80.0" y="418" type="curve" smooth="yes"/>
      <point x="80.0" y="301" type="line"/>
      <point x="80.0" y="276"/>
      <point x="91.0" y="265"/>
      <point x="116.0" y="265" type="curve" smooth="yes"/>
      <point x="579.0" y="265" type="line" smooth="yes"/>
      <point x="606.0" y="265"/>
      <point x="619.0" y="259"/>
      <point x="619.0" y="233" type="curve" smooth="yes"/>
      <point x="619.0" y="207"/>
      <point x="606.0" y="200"/>
      <point x="579.0" y="200" type="curve" smooth="yes"/>
      <point x="116.0" y="200" type="line" smooth="yes"/>
      <point x="91.0" y="200"/>
      <point x="80.0" y="190"/>
      <point x="80.0" y="164" type="curve" smooth="yes"/>
      <point x="80.0" y="47" type="line" smooth="yes"/>
      <point x="80.0" y="22"/>
      <point x="91.0" y="11"/>
      <point x="116.0" y="11" type="curve" smooth="yes"/>
    </contour>
  </outline>
</glyph>
<glyph name="indexup" format="1">
  <advance width="999"/>
  <unicode hex="E13C"/>
  <outline>
    <contour>
      <point x="727.0" y="596" type="curve" smooth="yes"/>
      <point x="727.0" y="124" type="line" smooth="yes"/>
      <point x="727.0" y="111"/>
      <point x="734.0" y="105"/>
      <point x="745.0" y="105" type="curve"/>
      <point x="840.0" y="105" type="line"/>
      <point x="851.0" y="105"/>
      <point x="858.0" y="111"/>
      <point x="858.0" y="124" type="curve" smooth="yes"/>
      <point x="858.0" y="596" type="line" smooth="yes"/>
      <point x="858.0" y="608"/>
      <point x="851.0" y="615"/>
      <point x="840.0" y="615" type="curve" smooth="yes"/>
      <point x="745.0" y="615" type="line"/>
      <point x="734.0" y="615"/>
      <point x="727.0" y="608"/>
    </contour>
    <contour>
      <point x="399.0" y="544" type="line" smooth="yes"/>
      <point x="389.0" y="544"/>
      <point x="376.0" y="535"/>
      <point x="376.0" y="525" type="curve" smooth="yes"/>
      <point x="376.0" y="476" type="line" smooth="yes"/>
      <point x="376.0" y="466"/>
      <point x="382.0" y="457"/>
      <point x="393.0" y="458" type="curve" smooth="yes"/>
      <point x="479.0" y="464" type="line" smooth="yes"/>
      <point x="479.0" y="453" type="line"/>
      <point x="379.0" y="446" type="line" smooth="yes"/>
      <point x="365.0" y="445"/>
      <point x="354.0" y="440"/>
      <point x="354.0" y="426" type="curve" smooth="yes"/>
      <point x="354.0" y="380" type="line" smooth="yes"/>
      <point x="354.0" y="367"/>
      <point x="362.0" y="359"/>
      <point x="373.0" y="360" type="curve" smooth="yes"/>
      <point x="460.0" y="366" type="line" smooth="yes"/>
      <point x="460.0" y="356" type="line"/>
      <point x="355.0" y="348" type="line" smooth="yes"/>
      <point x="340.0" y="347"/>
      <point x="330.0" y="342"/>
      <point x="330.0" y="329" type="curve" smooth="yes"/>
      <point x="330.0" y="284" type="line" smooth="yes"/>
      <point x="330.0" y="273"/>
      <point x="337.0" y="268"/>
      <point x="349.0" y="268" type="curve" smooth="yes"/>
      <point x="443.0" y="268" type="line" smooth="yes"/>
      <point x="443.0" y="257" type="line"/>
      <point x="167.0" y="257" type="line" smooth="yes"/>
      <point x="152.0" y="257"/>
      <point x="141.0" y="251"/>
      <point x="141.0" y="237" type="curve" smooth="yes"/>
      <point x="141.0" y="187" type="line" smooth="yes"/>
      <point x="141.0" y="172"/>
      <point x="154.0" y="166"/>
      <point x="164.0" y="165" type="curve" smooth="yes"/>
      <point x="465.0" y="144" type="line" smooth="yes"/>
      <point x="484.0" y="143"/>
      <point x="506.0" y="143"/>
      <point x="520.0" y="145" type="curve" smooth="yes"/>
      <point x="716.0" y="183" type="line"/>
      <point x="716.0" y="525" type="line"/>
      <point x="681.0" y="544" type="line" smooth="yes"/>
      <point x="672.0" y="549"/>
      <point x="656.0" y="554"/>
      <point x="639.0" y="554" type="curve" smooth="yes"/>
    </contour>
  </outline>
</glyph>
<glyph name="indexdown" format="1">
  <advance width="999"/>
  <unicode hex="E13D"/>
  <outline>
    <contour>
      <point x="159.0" y="615" type="line" smooth="yes"/>
      <point x="148.0" y="615"/>
      <point x="141.0" y="608"/>
      <point x="141.0" y="596" type="curve" smooth="yes"/>
      <point x="141.0" y="124" type="line" smooth="yes"/>
      <point x="141.0" y="111"/>
      <point x="148.0" y="105"/>
      <point x="159.0" y="105" type="curve"/>
      <point x="254.0" y="105" type="line"/>
      <point x="265.0" y="105"/>
      <point x="272.0" y="111"/>
      <point x="272.0" y="124" type="curve" smooth="yes"/>
      <point x="272.0" y="596" type="line" smooth="yes"/>
      <point x="272.0" y="608"/>
      <point x="265.0" y="615"/>
      <point x="254.0" y="615" type="curve"/>
    </contour>
    <contour>
      <point x="318.0" y="544" type="curve" smooth="yes"/>
      <point x="283.0" y="525" type="line"/>
      <point x="283.0" y="183" type="line"/>
      <point x="479.0" y="145" type="line" smooth="yes"/>
      <point x="493.0" y="143"/>
      <point x="515.0" y="143"/>
      <point x="534.0" y="144" type="curve" smooth="yes"/>
      <point x="835.0" y="165" type="line" smooth="yes"/>
      <point x="846.0" y="166"/>
      <point x="858.0" y="172"/>
      <point x="858.0" y="187" type="curve" smooth="yes"/>
      <point x="858.0" y="237" type="line" smooth="yes"/>
      <point x="858.0" y="251"/>
      <point x="847.0" y="257"/>
      <point x="832.0" y="257" type="curve" smooth="yes"/>
      <point x="556.0" y="257" type="line"/>
      <point x="556.0" y="268" type="line" smooth="yes"/>
      <point x="650.0" y="268" type="line" smooth="yes"/>
      <point x="662.0" y="268"/>
      <point x="669.0" y="273"/>
      <point x="669.0" y="284" type="curve" smooth="yes"/>
      <point x="669.0" y="329" type="line" smooth="yes"/>
      <point x="669.0" y="342"/>
      <point x="659.0" y="347"/>
      <point x="644.0" y="348" type="curve" smooth="yes"/>
      <point x="539.0" y="356" type="line"/>
      <point x="539.0" y="366" type="line" smooth="yes"/>
      <point x="626.0" y="360" type="line" smooth="yes"/>
      <point x="637.0" y="359"/>
      <point x="645.0" y="367"/>
      <point x="645.0" y="380" type="curve" smooth="yes"/>
      <point x="645.0" y="426" type="line" smooth="yes"/>
      <point x="645.0" y="440"/>
      <point x="634.0" y="445"/>
      <point x="620.0" y="446" type="curve" smooth="yes"/>
      <point x="520.0" y="453" type="line"/>
      <point x="520.0" y="464" type="line" smooth="yes"/>
      <point x="606.0" y="458" type="line" smooth="yes"/>
      <point x="617.0" y="457"/>
      <point x="623.0" y="466"/>
      <point x="623.0" y="476" type="curve" smooth="yes"/>
      <point x="623.0" y="525" type="line" smooth="yes"/>
      <point x="623.0" y="535"/>
      <point x="610.0" y="544"/>
      <point x="600.0" y="544" type="curve" smooth="yes"/>
      <point x="360.0" y="554" type="line" smooth="yes"/>
      <point x="343.0" y="554"/>
      <point x="327.0" y="549"/>
    </contour>
  </outline>
</glyph>
<glyph name="indexupleft" format="1">
  <advance width="1000"/>
  <unicode hex="E13E"/>
  <outline>
    <contour>
      <point x="899.0" y="311" type="line" smooth="yes"/>
      <point x="906.0" y="318"/>
      <point x="906.0" y="329"/>
      <point x="898.0" y="337" type="curve" smooth="yes"/>
      <point x="564.0" y="671" type="line" smooth="yes"/>
      <point x="556.0" y="680"/>
      <point x="545.0" y="679"/>
      <point x="538.0" y="672" type="curve"/>
      <point x="471.0" y="605" type="line"/>
      <point x="463.0" y="597"/>
      <point x="462.0" y="587"/>
      <point x="472.0" y="578" type="curve" smooth="yes"/>
      <point x="806.0" y="245" type="line" smooth="yes"/>
      <point x="814.0" y="236"/>
      <point x="825.0" y="236"/>
      <point x="832.0" y="243" type="curve"/>
    </contour>
    <contour>
      <point x="735.0" y="249" type="curve" smooth="yes"/>
      <point x="748.0" y="288" type="line"/>
      <point x="505.0" y="529" type="line"/>
      <point x="340.0" y="417" type="line" smooth="yes"/>
      <point x="329.0" y="409"/>
      <point x="313.0" y="394"/>
      <point x="301.0" y="379" type="curve" smooth="yes"/>
      <point x="102.0" y="151" type="line" smooth="yes"/>
      <point x="96.0" y="144"/>
      <point x="92.0" y="130"/>
      <point x="102.0" y="120" type="curve" smooth="yes"/>
      <point x="138.0" y="84" type="line" smooth="yes"/>
      <point x="147.0" y="74"/>
      <point x="160.0" y="78"/>
      <point x="170.0" y="88" type="curve" smooth="yes"/>
      <point x="366.0" y="283" type="line"/>
      <point x="373.0" y="276" type="line" smooth="yes"/>
      <point x="306.0" y="209" type="line" smooth="yes"/>
      <point x="297.0" y="201"/>
      <point x="296.0" y="192"/>
      <point x="305.0" y="184" type="curve" smooth="yes"/>
      <point x="335.0" y="153" type="line" smooth="yes"/>
      <point x="346.0" y="144"/>
      <point x="356.0" y="147"/>
      <point x="368.0" y="156" type="curve" smooth="yes"/>
      <point x="446.0" y="226" type="line"/>
      <point x="454.0" y="218" type="line" smooth="yes"/>
      <point x="389.0" y="162" type="line" smooth="yes"/>
      <point x="380.0" y="154"/>
      <point x="380.0" y="143"/>
      <point x="389.0" y="133" type="curve" smooth="yes"/>
      <point x="421.0" y="101" type="line" smooth="yes"/>
      <point x="432.0" y="91"/>
      <point x="442.0" y="95"/>
      <point x="454.0" y="105" type="curve" smooth="yes"/>
      <point x="529.0" y="170" type="line"/>
      <point x="537.0" y="163" type="line" smooth="yes"/>
      <point x="472.0" y="106" type="line" smooth="yes"/>
      <point x="463.0" y="100"/>
      <point x="465.0" y="88"/>
      <point x="472.0" y="82" type="curve" smooth="yes"/>
      <point x="507.0" y="47" type="line" smooth="yes"/>
      <point x="515.0" y="40"/>
      <point x="529.0" y="42"/>
      <point x="537.0" y="49" type="curve" smooth="yes"/>
      <point x="713.0" y="212" type="line" smooth="yes"/>
      <point x="726.0" y="225"/>
      <point x="733.0" y="239"/>
    </contour>
  </outline>
</glyph>
<glyph name="indexdownright.salt" format="1">
  <advance width="1000"/>
  <unicode hex="E14A"/>
  <outline>
    <contour>
      <point x="789.0" y="158" type="curve" smooth="yes"/>
      <point x="800.0" y="205" type="line" smooth="yes"/>
      <point x="802.0" y="213"/>
      <point x="796.0" y="222"/>
      <point x="783.0" y="228" type="curve" smooth="yes"/>
      <point x="662.0" y="282" type="line" smooth="yes"/>
      <point x="624.0" y="299"/>
      <point x="608.0" y="314"/>
      <point x="599.0" y="338" type="curve" smooth="yes"/>
      <point x="581.0" y="387" type="line" smooth="yes"/>
      <point x="572.0" y="410"/>
      <point x="564.0" y="428"/>
      <point x="584.0" y="449" type="curve" smooth="yes"/>
      <point x="787.0" y="669" type="line" smooth="yes"/>
      <point x="795.0" y="676"/>
      <point x="795.0" y="687"/>
      <point x="788.0" y="694" type="curve" smooth="yes"/>
      <point x="750.0" y="733" type="line" smooth="yes"/>
      <point x="743.0" y="740"/>
      <point x="734.0" y="740"/>
      <point x="727.0" y="735" type="curve" smooth="yes"/>
      <point x="456.0" y="529" type="line" smooth="yes"/>
      <point x="437.0" y="514"/>
      <point x="421.0" y="499"/>
      <point x="412.0" y="474" type="curve" smooth="yes"/>
      <point x="352.0" y="317" type="line"/>
      <point x="508.0" y="159" type="line"/>
      <point x="591.0" y="167" type="line" smooth="yes"/>
      <point x="621.0" y="170"/>
      <point x="641.0" y="166"/>
      <point x="682.0" y="158" type="curve" smooth="yes"/>
      <point x="768.0" y="144" type="line" smooth="yes"/>
      <point x="778.0" y="142"/>
      <point x="787.0" y="149"/>
    </contour>
    <contour>
      <point x="699.0" y="276" type="line"/>
      <point x="724.0" y="342" type="line" smooth="yes"/>
      <point x="732.0" y="365"/>
      <point x="731.0" y="392"/>
      <point x="708.0" y="415" type="curve" smooth="yes"/>
      <point x="633.0" y="487" type="line"/>
      <point x="592.0" y="443" type="line" smooth="yes"/>
      <point x="579.0" y="428"/>
      <point x="581.0" y="417"/>
      <point x="588.0" y="398" type="curve" smooth="yes"/>
      <point x="606.0" y="348" type="line"/>
      <point x="612.0" y="348"/>
      <point x="622.0" y="354"/>
      <point x="631.0" y="363" type="curve"/>
      <point x="635.0" y="360" type="line"/>
      <point x="621.0" y="344"/>
      <point x="619.0" y="337"/>
      <point x="620.0" y="320" type="curve"/>
      <point x="630.0" y="309"/>
      <point x="645.0" y="301"/>
      <point x="664.0" y="292" type="curve" smooth="yes"/>
    </contour>
    <contour>
      <point x="572.0" y="81" type="curve" smooth="yes"/>
      <point x="298.0" y="355" type="line" smooth="yes"/>
      <point x="290.0" y="363"/>
      <point x="281.0" y="363"/>
      <point x="273.0" y="355" type="curve"/>
      <point x="205.0" y="288" type="line"/>
      <point x="198.0" y="280"/>
      <point x="198.0" y="271"/>
      <point x="205.0" y="262" type="curve" smooth="yes"/>
      <point x="479.0" y="-12" type="line" smooth="yes"/>
      <point x="488.0" y="-20"/>
      <point x="499.0" y="-20"/>
      <point x="506.0" y="-13" type="curve" smooth="yes"/>
      <point x="575.0" y="56" type="line"/>
      <point x="582.0" y="63"/>
      <point x="581.0" y="72"/>
    </contour>
  </outline>
</glyph>
<glyph name="uni25D7.rounded" format="1">
  <advance width="350"/>
  <unicode hex="E176"/>
  <outline>
    <contour>
      <point x="-40" y="-180" type="line"/>
      <point x="25" y="-180" type="line" smooth="yes"/>
      <point x="178" y="-180"/>
      <point x="280" y="-74"/>
      <point x="280" y="360" type="curve" smooth="yes"/>
      <point x="280" y="794"/>
      <point x="178" y="900"/>
      <point x="25" y="900" type="curve" smooth="yes"/>
      <point x="-40" y="900" type="line"/>
    </contour>
  </outline>
</glyph>
<glyph name="uni2B1B.chevron_e" format="1">
  <advance width="1280.0"/>
  <unicode hex="E181"/>
  <outline>
    <contour>
      <point x="100.0" y="-243.0" type="line" smooth="yes"/>
      <point x="100.0" y="-268.0"/>
      <point x="116.0" y="-287.0"/>
      <point x="140.0" y="-277.0" type="curve" smooth="yes"/>
      <point x="640.0" y="-79.0" type="line"/>
      <point x="1140.0" y="-277.0" type="line" smooth="yes"/>
      <point x="1164.0" y="-287.0"/>
      <point x="1180.0" y="-268.0"/>
      <point x="1180.0" y="-243.0" type="curve" smooth="yes"/>
      <point x="1180.0" y="765.0" type="line" smooth="yes"/>
      <point x="1180.0" y="790.0"/>
      <point x="1168.0" y="792.0"/>
      <point x="1144.0" y="801.0" type="curve" smooth="yes"/>
      <point x="670.0" y="990.0" type="line" smooth="yes"/>
      <point x="652.0" y="997.0"/>
      <point x="631.0" y="997.0"/>
      <point x="613.0" y="990.0" type="curve" smooth="yes"/>
      <point x="136.0" y="801.0" type="line" smooth="yes"/>
      <point x="112.0" y="792.0"/>
      <point x="100.0" y="790.0"/>
      <point x="100.0" y="765.0" type="curve" smooth="yes"/>
    </contour>
  </outline>
</glyph>
<glyph name="uni2B24.salt_v" format="1">
  <advance width="1280"/>
  <unicode hex="FF3B"/>
  <outline>
    <contour>
      <point x="640.0" y="-210.0" type="curve" smooth="yes"/>
      <point x="844.0" y="-210.0"/>
      <point x="1048.0" y="-130.0"/>
      <point x="1180.0" y="29.0" type="curve"/>
      <point x="1180.0" y="691.0" type="line"/>
      <point x="1051.0" y="849.0"/>
      <point x="844.0" y="930.0"/>
      <point x="637.0" y="930.0" type="curve" smooth="yes"/>
      <point x="432.0" y="930.0"/>
      <point x="228.0" y="851.0"/>
      <point x="100.0" y="691.0" type="curve"/>
      <point x="100.0" y="29.0" type="line"/>
      <point x="232.0" y="-130.0"/>
      <point x="436.0" y="-210.0"/>
    </contour>
  </outline>
</glyph>
<glyph name="C.s" format="1">
  <advance width="824"/>
  <outline>
    <contour>
      <point x="752.0" y="615" type="line" smooth="yes"/>
      <point x="752.0" y="640"/>
      <point x="741.0" y="651"/>
      <point x="716.0" y="651" type="curve" smooth="yes"/>
      <point x="597.0" y="651" type="line" smooth="yes"/>
      <point x="572.0" y="651"/>
      <point x="561.0" y="640"/>
      <point x="561.0" y="615" type="curve" smooth="yes"/>
      <point x="561.0" y="345" type="line" smooth="yes"/>
      <point x="561.0" y="293"/>
      <point x="541.0" y="284"/>
      <point x="513.0" y="284" type="curve" smooth="yes"/>
      <point x="315.0" y="284" type="line" smooth="yes"/>
      <point x="289.0" y="284"/>
      <point x="265.0" y="293"/>
      <point x="265.0" y="345" type="curve" smooth="yes"/>
      <point x="265.0" y="615" type="line" smooth="yes"/>
      <point x="265.0" y="640"/>
      <point x="254.0" y="651"/>
      <point x="229.0" y="651" type="curve" smooth="yes"/>
      <point x="108.0" y="651" type="line" smooth="yes"/>
      <point x="83.0" y="651"/>
      <point x="72.0" y="640"/>
      <point x="72.0" y="615" type="curve" smooth="yes"/>
      <point x="72.0" y="302" type="line" smooth="yes"/>
      <point x="72.0" y="113"/>
      <point x="155.0" y="56"/>
      <point x="277.0" y="56" type="curve" smooth="yes"/>
      <point x="548.0" y="56" type="line" smooth="yes"/>
      <point x="669.0" y="56"/>
      <point x="752.0" y="113"/>
      <point x="752.0" y="302" type="curve" smooth="yes"/>
    </contour>
  </outline>
</glyph>
<glyph name="D.s" format="1">
  <advance width="824"/>
  <outline>
    <contour>
      <point x="752.0" y="419" type="line" smooth="yes"/>
      <point x="752.0" y="608"/>
      <point x="669.0" y="665"/>
      <point x="548.0" y="665" type="curve" smooth="yes"/>
      <point x="276.0" y="665" type="line" smooth="yes"/>
      <point x="155.0" y="665"/>
      <point x="72.0" y="608"/>
      <point x="72.0" y="419" type="curve" smooth="yes"/>
      <point x="72.0" y="96" type="line" smooth="yes"/>
      <point x="72.0" y="71"/>
      <point x="83.0" y="60"/>
      <point x="108.0" y="60" type="curve" smooth="yes"/>
      <point x="716.0" y="60" type="line" smooth="yes"/>
      <point x="741.0" y="60"/>
      <point x="752.0" y="71"/>
      <point x="752.0" y="96" type="curve" smooth="yes"/>
    </contour>
    <contour>
      <point x="263.0" y="287" type="line"/>
      <point x="263.0" y="392" type="line" smooth="yes"/>
      <point x="263.0" y="432"/>
      <point x="285.0" y="439"/>
      <point x="311.0" y="439" type="curve" smooth="yes"/>
      <point x="514.0" y="439" type="line" smooth="yes"/>
      <point x="541.0" y="439"/>
      <point x="563.0" y="432"/>
      <point x="563.0" y="392" type="curve" smooth="yes"/>
      <point x="563.0" y="287" type="line"/>
    </contour>
  </outline>
</glyph>
<glyph name="E.salt_s" format="1">
  <advance width="824.0"/>
  <outline>
    <contour>
      <point x="548.0" y="56" type="line" smooth="yes"/>
      <point x="669.0" y="56"/>
      <point x="752.0" y="113"/>
      <point x="752.0" y="302" type="curve"/>
      <point x="752.0" y="614" type="line" smooth="yes"/>
      <point x="752.0" y="639"/>
      <point x="741.0" y="650"/>
      <point x="716.0" y="650" type="curve" smooth="yes"/>
      <point x="603.0" y="650" type="line" smooth="yes"/>
      <point x="578.0" y="650"/>
      <point x="567.0" y="639"/>
      <point x="567.0" y="614" type="curve" smooth="yes"/>
      <point x="567.0" y="341" type="line"/>
      <point x="567.0" y="289"/>
      <point x="547.0" y="280"/>
      <point x="519.0" y="280" type="curve" smooth="yes"/>
      <point x="491.0" y="280" type="line"/>
      <point x="491.0" y="533" type="line" smooth="yes"/>
      <point x="491.0" y="558"/>
      <point x="480.0" y="569"/>
      <point x="455.0" y="569" type="curve" smooth="yes"/>
      <point x="360.0" y="569" type="line" smooth="yes"/>
      <point x="334.0" y="569"/>
      <point x="324.0" y="558"/>
      <point x="324.0" y="533" type="curve" smooth="yes"/>
      <point x="324.0" y="280" type="line"/>
      <point x="307.0" y="280" type="line" smooth="yes"/>
      <point x="281.0" y="280"/>
      <point x="257.0" y="289"/>
      <point x="257.0" y="341" type="curve"/>
      <point x="257.0" y="614" type="line" smooth="yes"/>
      <point x="257.0" y="639"/>
      <point x="246.0" y="650"/>
      <point x="221.0" y="650" type="curve" smooth="yes"/>
      <point x="108.0" y="650" type="line" smooth="yes"/>
      <point x="83.0" y="650"/>
      <point x="72.0" y="639"/>
      <point x="72.0" y="614" type="curve" smooth="yes"/>
      <point x="72.0" y="302" type="line"/>
      <point x="72.0" y="113"/>
      <point x="155.0" y="56"/>
      <point x="277.0" y="56" type="curve" smooth="yes"/>
    </contour>
  </outline>
</glyph>
<glyph name="M.salt" format="1">
  <advance width="882"/>
  <outline>
    <contour>
      <point x="802.0" y="47" type="curve" smooth="yes"/>
      <point x="802.0" y="164" type="line" smooth="yes"/>
      <point x="802.0" y="190"/>
      <point x="791.0" y="200"/>
      <point x="766.0" y="200" type="curve" smooth="yes"/>
      <point x="303.0" y="200" type="line" smooth="yes"/>
      <point x="276.0" y="200"/>
      <point x="263.0" y="207"/>
      <point x="263.0" y="233" type="curve" smooth="yes"/>
      <point x="263.0" y="259"/>
      <point x="276.0" y="265"/>
      <point x="303.0" y="265" type="curve" smooth="yes"/>
      <point x="766.0" y="265" type="line" smooth="yes"/>
      <point x="791.0" y="265"/>
      <point x="802.0" y="276"/>
      <point x="802.0" y="301" type="curve"/>
      <point x="802.0" y="418" type="line" smooth="yes"/>
      <point x="802.0" y="443"/>
      <point x="791.0" y="454"/>
      <point x="766.0" y="454" type="curve" smooth="yes"/>
      <point x="303.0" y="454" type="line" smooth="yes"/>
      <point x="276.0" y="454"/>
      <point x="263.0" y="460"/>
      <point x="263.0" y="486" type="curve" smooth="yes"/>
      <point x="263.0" y="512"/>
      <point x="276.0" y="519"/>
      <point x="303.0" y="519" type="curve" smooth="yes"/>
      <point x="766.0" y="519" type="line" smooth="yes"/>
      <point x="791.0" y="519"/>
      <point x="802.0" y="529"/>
      <point x="802.0" y="555" type="curve" smooth="yes"/>
      <point x="802.0" y="672" type="line" smooth="yes"/>
      <point x="802.0" y="697"/>
      <point x="791.0" y="708"/>
      <point x="766.0" y="708" type="curve" smooth="yes"/>
      <point x="271.0" y="708" type="line"/>
      <point x="149.0" y="708"/>
      <point x="67.0" y="660"/>
      <point x="67.0" y="509" type="curve" smooth="yes"/>
      <point x="67.0" y="434"/>
      <point x="85.0" y="387"/>
      <point x="117.0" y="359" type="curve"/>
      <point x="85.0" y="332"/>
      <point x="67.0" y="285"/>
      <point x="67.0" y="210" type="curve" smooth="yes"/>
      <point x="67.0" y="59"/>
      <point x="149.0" y="11"/>
      <point x="271.0" y="11" type="curve"/>
      <point x="766.0" y="11" type="line" smooth="yes"/>
      <point x="791.0" y="11"/>
      <point x="802.0" y="22"/>
    </contour>
  </outline>
</glyph>
<glyph name="N.salt_s" format="1">
  <advance width="819"/>
  <outline>
    <contour>
      <point x="261.0" y="60" type="curve" smooth="yes"/>
      <point x="716.0" y="60" type="line" smooth="yes"/>
      <point x="741.0" y="60"/>
      <point x="752.0" y="71"/>
      <point x="752.0" y="96" type="curve" smooth="yes"/>
      <point x="752.0" y="248" type="line" smooth="yes"/>
      <point x="752.0" y="274"/>
      <point x="741.0" y="284"/>
      <point x="716.0" y="284" type="curve" smooth="yes"/>
      <point x="300.0" y="284" type="line" smooth="yes"/>
      <point x="273.0" y="284"/>
      <point x="253.0" y="296"/>
      <point x="253.0" y="358" type="curve" smooth="yes"/>
      <point x="253.0" y="419"/>
      <point x="273.0" y="431"/>
      <point x="300.0" y="431" type="curve" smooth="yes"/>
      <point x="716.0" y="431" type="line" smooth="yes"/>
      <point x="741.0" y="431"/>
      <point x="752.0" y="442"/>
      <point x="752.0" y="467" type="curve" smooth="yes"/>
      <point x="752.0" y="624" type="line" smooth="yes"/>
      <point x="752.0" y="649"/>
      <point x="741.0" y="660"/>
      <point x="716.0" y="660" type="curve"/>
      <point x="261.0" y="660" type="line" smooth="yes"/>
      <point x="139.0" y="660"/>
      <point x="57.0" y="608"/>
      <point x="57.0" y="360" type="curve" smooth="yes"/>
      <point x="57.0" y="112"/>
      <point x="139.0" y="60"/>
    </contour>
  </outline>
</glyph>
<glyph name=".notdef" format="1">
  <advance width="840"/>
  <outline>
    <contour>
      <point x="784.0" y="760" type="curve" smooth="yes"/>
      <point x="56.0" y="760" type="line" smooth="yes"/>
      <point x="31.0" y="760"/>
      <point x="20.0" y="749"/>
      <point x="20.0" y="724" type="curve" smooth="yes"/>
      <point x="20.0" y="-4" type="line" smooth="yes"/>
      <point x="20.0" y="-29"/>
      <point x="31.0" y="-40"/>
      <point x="56.0" y="-40" type="curve" smooth="yes"/>
      <point x="784.0" y="-40" type="line" smooth="yes"/>
      <point x="809.0" y="-40"/>
      <point x="820.0" y="-29"/>
      <point x="820.0" y="-4" type="curve" smooth="yes"/>
      <point x="820.0" y="724" type="line" smooth="yes"/>
      <point x="820.0" y="749"/>
      <point x="809.0" y="760"/>
    </contour>
    <contour>
      <point x="770.0" y="10" type="line"/>
      <point x="70.0" y="10" type="line"/>
      <point x="70.0" y="710" type="line"/>
      <point x="770.0" y="710" type="line"/>
    </contour>
  </outline>
</glyph>
<glyph name="arrowdown.chevron" format="1">
  <advance width="1008"/>
  <outline>
    <contour>
      <point x="587.0" y="1043" type="curve" smooth="yes"/>
      <point x="587.0" y="900" type="line"/>
      <point x="-166.0" y="900" type="line" smooth="yes"/>
      <point x="-191.0" y="900"/>
      <point x="-210.0" y="884"/>
      <point x="-200.0" y="860" type="curve" smooth="yes"/>
      <point x="-2.0" y="360" type="line"/>
      <point x="-200.0" y="-140" type="line" smooth="yes"/>
      <point x="-210.0" y="-164"/>
      <point x="-191.0" y="-180"/>
      <point x="-166.0" y="-180" type="curve" smooth="yes"/>
      <point x="587.0" y="-180" type="line"/>
      <point x="587.0" y="-317" type="line" smooth="yes"/>
      <point x="587.0" y="-357"/>
      <point x="630.0" y="-371"/>
      <point x="667.0" y="-327" type="curve" smooth="yes"/>
      <point x="1183.0" y="299" type="line" smooth="yes"/>
      <point x="1220.0" y="344"/>
      <point x="1220.0" y="373"/>
      <point x="1183.0" y="419" type="curve" smooth="yes"/>
      <point x="667.0" y="1053" type="line" smooth="yes"/>
      <point x="637.0" y="1089"/>
      <point x="587.0" y="1074"/>
    </contour>
  </outline>
</glyph>
<glyph name="arrowright.chevron" format="1">
  <advance width="992"/>
  <outline>
    <contour>
      <point x="1179.0" y="394" type="line" smooth="yes"/>
      <point x="1210.0" y="394"/>
      <point x="1225.0" y="444"/>
      <point x="1189.0" y="474" type="curve" smooth="yes"/>
      <point x="559.0" y="990" type="line" smooth="yes"/>
      <point x="513.0" y="1027"/>
      <point x="485.0" y="1027"/>
      <point x="439.0" y="990" type="curve" smooth="yes"/>
      <point x="-191.0" y="474" type="line" smooth="yes"/>
      <point x="-235.0" y="438"/>
      <point x="-221.0" y="394"/>
      <point x="-181.0" y="394" type="curve" smooth="yes"/>
      <point x="-40.0" y="394" type="line"/>
      <point x="-40.0" y="-267" type="line" smooth="yes"/>
      <point x="-40.0" y="-292"/>
      <point x="-24.0" y="-311"/>
      <point x="0.0" y="-301" type="curve" smooth="yes"/>
      <point x="500.0" y="-103" type="line"/>
      <point x="1000.0" y="-301" type="line" smooth="yes"/>
      <point x="1024.0" y="-311"/>
      <point x="1040.0" y="-292"/>
      <point x="1040.0" y="-267" type="curve" smooth="yes"/>
      <point x="1040.0" y="394" type="line"/>
    </contour>
  </outline>
</glyph>
<glyph name="arrowup.chevron" format="1">
  <advance width="1014"/>
  <outline>
    <contour>
      <point x="424.0" y="1043" type="line" smooth="yes"/>
      <point x="424.0" y="1074"/>
      <point x="374.0" y="1089"/>
      <point x="344.0" y="1053" type="curve" smooth="yes"/>
      <point x="-172.0" y="419" type="line" smooth="yes"/>
      <point x="-209.0" y="373"/>
      <point x="-209.0" y="344"/>
      <point x="-172.0" y="299" type="curve" smooth="yes"/>
      <point x="344.0" y="-327" type="line" smooth="yes"/>
      <point x="381.0" y="-371"/>
      <point x="424.0" y="-357"/>
      <point x="424.0" y="-317" type="curve" smooth="yes"/>
      <point x="424.0" y="-180" type="line"/>
      <point x="1177.0" y="-180" type="line" smooth="yes"/>
      <point x="1202.0" y="-180"/>
      <point x="1221.0" y="-164"/>
      <point x="1211.0" y="-140" type="curve" smooth="yes"/>
      <point x="1013.0" y="360" type="line"/>
      <point x="1211.0" y="860" type="line" smooth="yes"/>
      <point x="1221.0" y="884"/>
      <point x="1202.0" y="900"/>
      <point x="1177.0" y="900" type="curve" smooth="yes"/>
      <point x="424.0" y="900" type="line"/>
    </contour>
  </outline>
</glyph>
<glyph name="equal.salt" format="1">
  <advance width="1000"/>
  <outline>
    <contour>
      <point x="820.0" y="-104" type="curve" smooth="yes"/>
      <point x="820.0" y="824" type="line" smooth="yes"/>
      <point x="820.0" y="849"/>
      <point x="809.0" y="860"/>
      <point x="784.0" y="860" type="curve" smooth="yes"/>
      <point x="716.0" y="860" type="line" smooth="yes"/>
      <point x="691.0" y="860"/>
      <point x="680.0" y="849"/>
      <point x="680.0" y="824" type="curve" smooth="yes"/>
      <point x="680.0" y="-104" type="line" smooth="yes"/>
      <point x="680.0" y="-129"/>
      <point x="691.0" y="-140"/>
      <point x="716.0" y="-140" type="curve" smooth="yes"/>
      <point x="784.0" y="-140" type="line" smooth="yes"/>
      <point x="809.0" y="-140"/>
      <point x="820.0" y="-129"/>
    </contour>
    <contour>
      <point x="320.0" y="-104" type="curve" smooth="yes"/>
      <point x="320.0" y="824" type="line" smooth="yes"/>
      <point x="320.0" y="849"/>
      <point x="309.0" y="860"/>
      <point x="284.0" y="860" type="curve" smooth="yes"/>
      <point x="216.0" y="860" type="line" smooth="yes"/>
      <point x="191.0" y="860"/>
      <point x="180.0" y="849"/>
      <point x="180.0" y="824" type="curve" smooth="yes"/>
      <point x="180.0" y="-104" type="line" smooth="yes"/>
      <point x="180.0" y="-129"/>
      <point x="191.0" y="-140"/>
      <point x="216.0" y="-140" type="curve" smooth="yes"/>
      <point x="284.0" y="-140" type="line" smooth="yes"/>
      <point x="309.0" y="-140"/>
      <point x="320.0" y="-129"/>
    </contour>
  </outline>
</glyph>
<glyph name="indexdownleft.salt" format="1">
  <advance width="1000"/>
  <outline>
    <contour>
      <point x="575.0" y="664" type="curve"/>
      <point x="506.0" y="733" type="line" smooth="yes"/>
      <point x="499.0" y="740"/>
      <point x="488.0" y="740"/>
      <point x="479.0" y="732" type="curve" smooth="yes"/>
      <point x="205.0" y="458" type="line" smooth="yes"/>
      <point x="198.0" y="449"/>
      <point x="198.0" y="440"/>
      <point x="205.0" y="432" type="curve"/>
      <point x="273.0" y="365" type="line"/>
      <point x="281.0" y="357"/>
      <point x="290.0" y="357"/>
      <point x="298.0" y="365" type="curve" smooth="yes"/>
      <point x="572.0" y="639" type="line" smooth="yes"/>
      <point x="581.0" y="648"/>
      <point x="582.0" y="657"/>
    </contour>
    <contour>
      <point x="768.0" y="576" type="curve" smooth="yes"/>
      <point x="682.0" y="562" type="line" smooth="yes"/>
      <point x="641.0" y="554"/>
      <point x="621.0" y="550"/>
      <point x="591.0" y="553" type="curve" smooth="yes"/>
      <point x="508.0" y="561" type="line"/>
      <point x="352.0" y="403" type="line"/>
      <point x="412.0" y="246" type="line" smooth="yes"/>
      <point x="421.0" y="221"/>
      <point x="437.0" y="206"/>
      <point x="456.0" y="191" type="curve" smooth="yes"/>
      <point x="727.0" y="-15" type="line" smooth="yes"/>
      <point x="734.0" y="-20"/>
      <point x="743.0" y="-20"/>
      <point x="750.0" y="-13" type="curve" smooth="yes"/>
      <point x="788.0" y="26" type="line" smooth="yes"/>
      <point x="795.0" y="33"/>
      <point x="795.0" y="44"/>
      <point x="787.0" y="51" type="curve" smooth="yes"/>
      <point x="584.0" y="271" type="line" smooth="yes"/>
      <point x="564.0" y="292"/>
      <point x="572.0" y="310"/>
      <point x="581.0" y="333" type="curve" smooth="yes"/>
      <point x="599.0" y="382" type="line" smooth="yes"/>
      <point x="608.0" y="406"/>
      <point x="624.0" y="421"/>
      <point x="662.0" y="438" type="curve" smooth="yes"/>
      <point x="783.0" y="492" type="line" smooth="yes"/>
      <point x="796.0" y="498"/>
      <point x="802.0" y="507"/>
      <point x="800.0" y="515" type="curve" smooth="yes"/>
      <point x="789.0" y="562" type="line" smooth="yes"/>
      <point x="787.0" y="571"/>
      <point x="778.0" y="578"/>
    </contour>
    <contour>
      <point x="664.0" y="428" type="line" smooth="yes"/>
      <point x="645.0" y="419"/>
      <point x="630.0" y="411"/>
      <point x="620.0" y="400" type="curve"/>
      <point x="619.0" y="383"/>
      <point x="621.0" y="376"/>
      <point x="635.0" y="360" type="curve"/>
      <point x="631.0" y="357" type="line"/>
      <point x="622.0" y="366"/>
      <point x="612.0" y="372"/>
      <point x="606.0" y="372" type="curve"/>
      <point x="588.0" y="322" type="line" smooth="yes"/>
      <point x="581.0" y="303"/>
      <point x="579.0" y="292"/>
      <point x="592.0" y="277" type="curve" smooth="yes"/>
      <point x="633.0" y="233" type="line"/>
      <point x="708.0" y="305" type="line" smooth="yes"/>
      <point x="731.0" y="328"/>
      <point x="732.0" y="355"/>
      <point x="724.0" y="378" type="curve" smooth="yes"/>
      <point x="699.0" y="444" type="line"/>
    </contour>
  </outline>
</glyph>
<glyph name="indexupright.salt" format="1">
  <advance width="1000"/>
  <outline>
    <contour>
      <point x="702.0" y="649" type="curve" smooth="yes"/>
      <point x="655.0" y="660" type="line" smooth="yes"/>
      <point x="647.0" y="662"/>
      <point x="638.0" y="656"/>
      <point x="632.0" y="644" type="curve" smooth="yes"/>
      <point x="578.0" y="522" type="line" smooth="yes"/>
      <point x="561.0" y="484"/>
      <point x="546.0" y="468"/>
      <point x="522.0" y="459" type="curve" smooth="yes"/>
      <point x="473.0" y="441" type="line" smooth="yes"/>
      <point x="450.0" y="432"/>
      <point x="432.0" y="424"/>
      <point x="411.0" y="444" type="curve" smooth="yes"/>
      <point x="191.0" y="647" type="line" smooth="yes"/>
      <point x="184.0" y="655"/>
      <point x="173.0" y="655"/>
      <point x="166.0" y="648" type="curve" smooth="yes"/>
      <point x="127.0" y="610" type="line" smooth="yes"/>
      <point x="120.0" y="603"/>
      <point x="120.0" y="594"/>
      <point x="125.0" y="587" type="curve" smooth="yes"/>
      <point x="331.0" y="316" type="line" smooth="yes"/>
      <point x="346.0" y="297"/>
      <point x="361.0" y="281"/>
      <point x="386.0" y="272" type="curve" smooth="yes"/>
      <point x="543.0" y="212" type="line"/>
      <point x="701.0" y="368" type="line"/>
      <point x="693.0" y="451" type="line" smooth="yes"/>
      <point x="690.0" y="481"/>
      <point x="694.0" y="501"/>
      <point x="702.0" y="542" type="curve" smooth="yes"/>
      <point x="716.0" y="628" type="line" smooth="yes"/>
      <point x="718.0" y="638"/>
      <point x="711.0" y="647"/>
    </contour>
    <contour>
      <point x="584.0" y="560" type="line"/>
      <point x="518.0" y="584" type="line" smooth="yes"/>
      <point x="495.0" y="592"/>
      <point x="468.0" y="591"/>
      <point x="445.0" y="568" type="curve" smooth="yes"/>
      <point x="373.0" y="493" type="line"/>
      <point x="417.0" y="452" type="line" smooth="yes"/>
      <point x="432.0" y="439"/>
      <point x="443.0" y="441"/>
      <point x="462.0" y="448" type="curve" smooth="yes"/>
      <point x="512.0" y="466" type="line"/>
      <point x="512.0" y="472"/>
      <point x="506.0" y="482"/>
      <point x="497.0" y="491" type="curve"/>
      <point x="500.0" y="495" type="line"/>
      <point x="516.0" y="481"/>
      <point x="523.0" y="479"/>
      <point x="540.0" y="480" type="curve"/>
      <point x="551.0" y="490"/>
      <point x="559.0" y="505"/>
      <point x="568.0" y="524" type="curve" smooth="yes"/>
    </contour>
    <contour>
      <point x="779.0" y="432" type="curve" smooth="yes"/>
      <point x="505.0" y="158" type="line" smooth="yes"/>
      <point x="497.0" y="150"/>
      <point x="497.0" y="141"/>
      <point x="505.0" y="133" type="curve"/>
      <point x="572.0" y="65" type="line"/>
      <point x="580.0" y="58"/>
      <point x="589.0" y="58"/>
      <point x="598.0" y="65" type="curve" smooth="yes"/>
      <point x="872.0" y="339" type="line" smooth="yes"/>
      <point x="880.0" y="348"/>
      <point x="880.0" y="359"/>
      <point x="873.0" y="366" type="curve" smooth="yes"/>
      <point x="804.0" y="435" type="line"/>
      <point x="797.0" y="442"/>
      <point x="788.0" y="441"/>
    </contour>
  </outline>
</glyph>
<glyph name="quoteright.salt" format="1">
  <advance width="344"/>
  <outline>
    <contour>
      <point x="312.0" y="152" type="line" smooth="yes"/>
      <point x="312.0" y="217"/>
      <point x="276.0" y="259"/>
      <point x="203.0" y="259" type="curve" smooth="yes"/>
      <point x="68.0" y="259" type="line" smooth="yes"/>
      <point x="50.0" y="259"/>
      <point x="42.0" y="251"/>
      <point x="42.0" y="233" type="curve" smooth="yes"/>
      <point x="42.0" y="87" type="line" smooth="yes"/>
      <point x="42.0" y="69"/>
      <point x="50.0" y="61"/>
      <point x="68.0" y="61" type="curve" smooth="yes"/>
      <point x="174.0" y="61" type="line" smooth="yes"/>
      <point x="192.0" y="61"/>
      <point x="200.0" y="69"/>
      <point x="200.0" y="87" type="curve" smooth="yes"/>
      <point x="200.0" y="166" type="line"/>
      <point x="211.0" y="166" type="line" smooth="yes"/>
      <point x="224.0" y="166"/>
      <point x="231.0" y="159"/>
      <point x="231.0" y="146" type="curve" smooth="yes"/>
      <point x="231.0" y="97" type="line" smooth="yes"/>
      <point x="231.0" y="79"/>
      <point x="239.0" y="71"/>
      <point x="257.0" y="71" type="curve" smooth="yes"/>
      <point x="286.0" y="71" type="line" smooth="yes"/>
      <point x="304.0" y="71"/>
      <point x="312.0" y="79"/>
      <point x="312.0" y="97" type="curve" smooth="yes"/>
    </contour>
  </outline>
</glyph>
<glyph name="uni21AB.arrow" format="1">
  <advance width="1734"/>
  <outline>
    <contour>
      <point x="760.0" y="853" type="line" smooth="yes"/>
      <point x="208.0" y="853"/>
      <point x="-40.0" y="560"/>
      <point x="-40.0" y="119" type="curve" smooth="yes"/>
      <point x="-40.0" y="-180" type="line"/>
      <point x="1040.0" y="-180" type="line"/>
      <point x="1040.0" y="-121" type="line" smooth="yes"/>
      <point x="1040.0" y="-70"/>
      <point x="1055.0" y="-47"/>
      <point x="1101.0" y="-47" type="curve" smooth="yes"/>
      <point x="1148.0" y="-47" type="line"/>
      <point x="1148.0" y="-184" type="line" smooth="yes"/>
      <point x="1148.0" y="-224"/>
      <point x="1188.0" y="-235"/>
      <point x="1228.0" y="-194" type="curve" smooth="yes"/>
      <point x="1744.0" y="347" type="line" smooth="yes"/>
      <point x="1787.0" y="392"/>
      <point x="1782.0" y="426"/>
      <point x="1744.0" y="467" type="curve" smooth="yes"/>
      <point x="1228.0" y="1016" type="line" smooth="yes"/>
      <point x="1190.0" y="1056"/>
      <point x="1148.0" y="1047"/>
      <point x="1148.0" y="1006" type="curve" smooth="yes"/>
      <point x="1148.0" y="853" type="line"/>
    </contour>
  </outline>
</glyph>
<glyph name="uni21AB.v_arrow" format="1">
  <advance width="1189"/>
  <outline>
    <contour>
      <point x="966.0" y="101" type="line" smooth="yes"/>
      <point x="966.0" y="653"/>
      <point x="673.0" y="901"/>
      <point x="232.0" y="901" type="curve" smooth="yes"/>
      <point x="-67.0" y="901" type="line"/>
      <point x="-67.0" y="-179" type="line"/>
      <point x="-8.0" y="-179" type="line" smooth="yes"/>
      <point x="43.0" y="-179"/>
      <point x="66.0" y="-194"/>
      <point x="66.0" y="-240" type="curve" smooth="yes"/>
      <point x="66.0" y="-287" type="line"/>
      <point x="-71.0" y="-287" type="line" smooth="yes"/>
      <point x="-111.0" y="-287"/>
      <point x="-122.0" y="-327"/>
      <point x="-81.0" y="-367" type="curve" smooth="yes"/>
      <point x="460.0" y="-883" type="line" smooth="yes"/>
      <point x="505.0" y="-926"/>
      <point x="539.0" y="-921"/>
      <point x="580.0" y="-883" type="curve" smooth="yes"/>
      <point x="1129.0" y="-367" type="line" smooth="yes"/>
      <point x="1169.0" y="-329"/>
      <point x="1160.0" y="-287"/>
      <point x="1119.0" y="-287" type="curve" smooth="yes"/>
      <point x="966.0" y="-287" type="line"/>
    </contour>
  </outline>
</glyph>
<glyph name="uni21AC.arrow" format="1">
  <advance width="266"/>
  <outline>
    <contour>
      <point x="-148.0" y="1006" type="line" smooth="yes"/>
      <point x="-148.0" y="1047"/>
      <point x="-190.0" y="1056"/>
      <point x="-228.0" y="1016" type="curve" smooth="yes"/>
      <point x="-744.0" y="467" type="line" smooth="yes"/>
      <point x="-782.0" y="426"/>
      <point x="-787.0" y="392"/>
      <point x="-744.0" y="347" type="curve" smooth="yes"/>
      <point x="-228.0" y="-194" type="line" smooth="yes"/>
      <point x="-188.0" y="-235"/>
      <point x="-148.0" y="-224"/>
      <point x="-148.0" y="-184" type="curve" smooth="yes"/>
      <point x="-148.0" y="-47" type="line"/>
      <point x="-101.0" y="-47" type="line" smooth="yes"/>
      <point x="-55.0" y="-47"/>
      <point x="-40.0" y="-70"/>
      <point x="-40.0" y="-121" type="curve" smooth="yes"/>
      <point x="-40.0" y="-180" type="line"/>
      <point x="1040.0" y="-180" type="line"/>
      <point x="1040.0" y="119" type="line" smooth="yes"/>
      <point x="1040.0" y="560"/>
      <point x="792.0" y="853"/>
      <point x="240.0" y="853" type="curve" smooth="yes"/>
      <point x="-148.0" y="853" type="line"/>
    </contour>
  </outline>
</glyph>
<glyph name="uni21AC.v_arrow" format="1">
  <advance width="1189"/>
  <outline>
    <contour>
      <point x="1119.0" y="1009" type="line" smooth="yes"/>
      <point x="1160.0" y="1009"/>
      <point x="1169.0" y="1051"/>
      <point x="1129.0" y="1089" type="curve" smooth="yes"/>
      <point x="580.0" y="1605" type="line" smooth="yes"/>
      <point x="539.0" y="1643"/>
      <point x="505.0" y="1648"/>
      <point x="460.0" y="1605" type="curve" smooth="yes"/>
      <point x="-81.0" y="1089" type="line" smooth="yes"/>
      <point x="-122.0" y="1049"/>
      <point x="-111.0" y="1009"/>
      <point x="-71.0" y="1009" type="curve" smooth="yes"/>
      <point x="66.0" y="1009" type="line"/>
      <point x="66.0" y="962" type="line" smooth="yes"/>
      <point x="66.0" y="916"/>
      <point x="43.0" y="901"/>
      <point x="-8.0" y="901" type="curve" smooth="yes"/>
      <point x="-67.0" y="901" type="line"/>
      <point x="-67.0" y="-179" type="line"/>
      <point x="232.0" y="-179" type="line" smooth="yes"/>
      <point x="673.0" y="-179"/>
      <point x="966.0" y="69"/>
      <point x="966.0" y="621" type="curve" smooth="yes"/>
      <point x="966.0" y="1009" type="line"/>
    </contour>
  </outline>
</glyph>
<glyph name="uni25D6.v_bevel" format="1">
  <advance width="350"/>
  <outline>
    <contour>
      <point x="306.0" y="-179" type="curve" smooth="yes"/>
      <point x="390.0" y="-179" type="line" smooth="yes"/>
      <point x="390.0" y="901" type="line" smooth="yes"/>
      <point x="306.0" y="901" type="line" smooth="yes"/>
      <point x="281.0" y="901"/>
      <point x="270.0" y="890"/>
      <point x="270.0" y="865" type="curve" smooth="yes"/>
      <point x="270.0" y="841" type="line"/>
      <point x="193.0" y="841"/>
      <point x="130.0" y="778"/>
      <point x="130.0" y="701" type="curve"/>
      <point x="106.0" y="701" type="line" smooth="yes"/>
      <point x="81.0" y="701"/>
      <point x="70.0" y="690"/>
      <point x="70.0" y="665" type="curve" smooth="yes"/>
      <point x="70.0" y="57" type="line" smooth="yes"/>
      <point x="70.0" y="32"/>
      <point x="81.0" y="21"/>
      <point x="106.0" y="21" type="curve" smooth="yes"/>
      <point x="130.0" y="21" type="line"/>
      <point x="130.0" y="-56"/>
      <point x="193.0" y="-119"/>
      <point x="270.0" y="-119" type="curve"/>
      <point x="270.0" y="-143" type="line" smooth="yes"/>
      <point x="270.0" y="-168"/>
      <point x="281.0" y="-179"/>
    </contour>
  </outline>
</glyph>
<glyph name="uni25D6.v_deco" format="1">
  <advance width="560"/>
  <outline>
    <contour>
      <point x="240.0" y="-69" type="curve"/>
      <point x="240.0" y="-146"/>
      <point x="303.0" y="-209"/>
      <point x="380.0" y="-209" type="curve"/>
      <point x="380.0" y="-233" type="line" smooth="yes"/>
      <point x="380.0" y="-258"/>
      <point x="391.0" y="-269"/>
      <point x="416.0" y="-269" type="curve" smooth="yes"/>
      <point x="494.0" y="-269" type="line" smooth="yes"/>
      <point x="519.0" y="-269"/>
      <point x="530.0" y="-258"/>
      <point x="530.0" y="-233" type="curve" smooth="yes"/>
      <point x="530.0" y="955" type="line" smooth="yes"/>
      <point x="530.0" y="980"/>
      <point x="519.0" y="991"/>
      <point x="494.0" y="991" type="curve" smooth="yes"/>
      <point x="416.0" y="991" type="line" smooth="yes"/>
      <point x="391.0" y="991"/>
      <point x="380.0" y="980"/>
      <point x="380.0" y="955" type="curve" smooth="yes"/>
      <point x="380.0" y="931" type="line"/>
      <point x="303.0" y="931"/>
      <point x="240.0" y="868"/>
      <point x="240.0" y="791" type="curve"/>
      <point x="126.0" y="771"/>
      <point x="50.0" y="660"/>
      <point x="50.0" y="361" type="curve" smooth="yes"/>
      <point x="50.0" y="62"/>
      <point x="126.0" y="-49"/>
    </contour>
  </outline>
</glyph>
<glyph name="uni25D7.bevel" format="1">
  <advance width="1000"/>
  <outline>
    <contour>
      <point x="-40.0" y="229" type="curve" smooth="yes"/>
      <point x="-40.0" y="145" type="line" smooth="yes"/>
      <point x="1040.0" y="145" type="line" smooth="yes"/>
      <point x="1040.0" y="229" type="line" smooth="yes"/>
      <point x="1040.0" y="254"/>
      <point x="1029.0" y="265"/>
      <point x="1004.0" y="265" type="curve" smooth="yes"/>
      <point x="980.0" y="265" type="line"/>
      <point x="980.0" y="342"/>
      <point x="917.0" y="405"/>
      <point x="840.0" y="405" type="curve"/>
      <point x="840.0" y="429" type="line" smooth="yes"/>
      <point x="840.0" y="454"/>
      <point x="829.0" y="465"/>
      <point x="804.0" y="465" type="curve" smooth="yes"/>
      <point x="196.0" y="465" type="line" smooth="yes"/>
      <point x="171.0" y="465"/>
      <point x="160.0" y="454"/>
      <point x="160.0" y="429" type="curve" smooth="yes"/>
      <point x="160.0" y="405" type="line"/>
      <point x="83.0" y="405"/>
      <point x="20.0" y="342"/>
      <point x="20.0" y="265" type="curve"/>
      <point x="-4.0" y="265" type="line" smooth="yes"/>
      <point x="-29.0" y="265"/>
      <point x="-40.0" y="254"/>
    </contour>
  </outline>
</glyph>
<glyph name="uni25D7.deco" format="1">
  <advance width="1000"/>
  <outline>
    <contour>
      <point x="70.0" y="400" type="curve"/>
      <point x="-7.0" y="400"/>
      <point x="-70.0" y="337"/>
      <point x="-70.0" y="260" type="curve"/>
      <point x="-94.0" y="260" type="line" smooth="yes"/>
      <point x="-119.0" y="260"/>
      <point x="-130.0" y="249"/>
      <point x="-130.0" y="224" type="curve" smooth="yes"/>
      <point x="-130.0" y="146" type="line" smooth="yes"/>
      <point x="-130.0" y="121"/>
      <point x="-119.0" y="110"/>
      <point x="-94.0" y="110" type="curve" smooth="yes"/>
      <point x="1094.0" y="110" type="line" smooth="yes"/>
      <point x="1119.0" y="110"/>
      <point x="1130.0" y="121"/>
      <point x="1130.0" y="146" type="curve" smooth="yes"/>
      <point x="1130.0" y="224" type="line" smooth="yes"/>
      <point x="1130.0" y="249"/>
      <point x="1119.0" y="260"/>
      <point x="1094.0" y="260" type="curve" smooth="yes"/>
      <point x="1070.0" y="260" type="line"/>
      <point x="1070.0" y="337"/>
      <point x="1007.0" y="400"/>
      <point x="930.0" y="400" type="curve"/>
      <point x="910.0" y="514"/>
      <point x="799.0" y="590"/>
      <point x="500.0" y="590" type="curve" smooth="yes"/>
      <point x="201.0" y="590"/>
      <point x="90.0" y="514"/>
    </contour>
  </outline>
</glyph>
<glyph name="uni25D7.v_spike" format="1">
  <advance width="350"/>
  <outline>
    <contour>
      <point x="-40.0" y="-179" type="line"/>
      <point x="12.0" y="-179" type="line" smooth="yes"/>
      <point x="32.0" y="-179"/>
      <point x="38.0" y="-179"/>
      <point x="70.0" y="-183" type="curve" smooth="yes"/>
      <point x="240.0" y="-203" type="line" smooth="yes"/>
      <point x="255.0" y="-205"/>
      <point x="266.0" y="-189"/>
      <point x="260.0" y="-175" type="curve" smooth="yes"/>
      <point x="146.0" y="115" type="line"/>
      <point x="141.0" y="124"/>
      <point x="143.0" y="137"/>
      <point x="150.0" y="145" type="curve" smooth="yes"/>
      <point x="307.0" y="334" type="line" smooth="yes"/>
      <point x="320.0" y="349"/>
      <point x="320.0" y="373"/>
      <point x="307.0" y="388" type="curve" smooth="yes"/>
      <point x="150.0" y="577" type="line" smooth="yes"/>
      <point x="143.0" y="585"/>
      <point x="142.0" y="598"/>
      <point x="146.0" y="607" type="curve" smooth="yes"/>
      <point x="260.0" y="897" type="line" smooth="yes"/>
      <point x="266.0" y="911"/>
      <point x="255.0" y="927"/>
      <point x="240.0" y="925" type="curve" smooth="yes"/>
      <point x="70.0" y="905" type="line" smooth="yes"/>
      <point x="38.0" y="901"/>
      <point x="32.0" y="901"/>
      <point x="12.0" y="901" type="curve" smooth="yes"/>
      <point x="-40.0" y="901" type="line"/>
    </contour>
  </outline>
</glyph>
<glyph name="uni26D7.wings" format="1">
  <advance width="1000"/>
  <outline>
    <contour>
      <point x="1230.0" y="102" type="curve" smooth="yes"/>
      <point x="1230.0" y="578" type="line" smooth="yes"/>
      <point x="1230.0" y="604"/>
      <point x="1219.0" y="614"/>
      <point x="1194.0" y="614" type="curve" smooth="yes"/>
      <point x="1040.0" y="614" type="line"/>
      <point x="1040.0" y="754" type="line" smooth="yes"/>
      <point x="1040.0" y="780"/>
      <point x="1029.0" y="790"/>
      <point x="1004.0" y="790" type="curve" smooth="yes"/>
      <point x="-4.0" y="790" type="line" smooth="yes"/>
      <point x="-29.0" y="790"/>
      <point x="-40.0" y="780"/>
      <point x="-40.0" y="754" type="curve" smooth="yes"/>
      <point x="-40.0" y="614" type="line"/>
      <point x="-194.0" y="614" type="line" smooth="yes"/>
      <point x="-219.0" y="614"/>
      <point x="-230.0" y="604"/>
      <point x="-230.0" y="578" type="curve" smooth="yes"/>
      <point x="-230.0" y="102" type="line" smooth="yes"/>
      <point x="-230.0" y="76"/>
      <point x="-219.0" y="66"/>
      <point x="-194.0" y="66" type="curve"/>
      <point x="-90.0" y="66"/>
      <point x="-40.0" y="10"/>
      <point x="-40.0" y="-87" type="curve" smooth="yes"/>
      <point x="-40.0" y="-130" type="line" smooth="yes"/>
      <point x="1040.0" y="-130" type="line" smooth="yes"/>
      <point x="1040.0" y="-94" type="line" smooth="yes"/>
      <point x="1040.0" y="7"/>
      <point x="1089.0" y="66"/>
      <point x="1194.0" y="66" type="curve"/>
      <point x="1219.0" y="66"/>
      <point x="1230.0" y="76"/>
    </contour>
  </outline>
</glyph>
<glyph name="uni2B1B.chevron_n" format="1">
  <advance width="1000"/>
  <outline>
    <contour>
      <point x="93.0" y="900" type="line" smooth="yes"/>
      <point x="68.0" y="900"/>
      <point x="66.0" y="888"/>
      <point x="57.0" y="864" type="curve" smooth="yes"/>
      <point x="-132.0" y="387" type="line" smooth="yes"/>
      <point x="-139.0" y="369"/>
      <point x="-139.0" y="348"/>
      <point x="-132.0" y="330" type="curve" smooth="yes"/>
      <point x="57.0" y="-144" type="line" smooth="yes"/>
      <point x="66.0" y="-168"/>
      <point x="68.0" y="-180"/>
      <point x="93.0" y="-180" type="curve" smooth="yes"/>
      <point x="1101.0" y="-180" type="line" smooth="yes"/>
      <point x="1126.0" y="-180"/>
      <point x="1145.0" y="-164"/>
      <point x="1135.0" y="-140" type="curve" smooth="yes"/>
      <point x="937.0" y="360" type="line"/>
      <point x="1135.0" y="860" type="line" smooth="yes"/>
      <point x="1145.0" y="884"/>
      <point x="1126.0" y="900"/>
      <point x="1101.0" y="900" type="curve" smooth="yes"/>
    </contour>
  </outline>
</glyph>
<glyph name="uni2B1B.chevron_s" format="1">
  <advance width="986"/>
  <outline>
    <contour>
      <point x="-108.0" y="900" type="line" smooth="yes"/>
      <point x="-133.0" y="900"/>
      <point x="-152.0" y="884"/>
      <point x="-142.0" y="860" type="curve" smooth="yes"/>
      <point x="56.0" y="360" type="line"/>
      <point x="-142.0" y="-140" type="line" smooth="yes"/>
      <point x="-152.0" y="-164"/>
      <point x="-133.0" y="-180"/>
      <point x="-108.0" y="-180" type="curve" smooth="yes"/>
      <point x="900.0" y="-180" type="line" smooth="yes"/>
      <point x="925.0" y="-180"/>
      <point x="927.0" y="-168"/>
      <point x="936.0" y="-144" type="curve" smooth="yes"/>
      <point x="1125.0" y="330" type="line" smooth="yes"/>
      <point x="1132.0" y="348"/>
      <point x="1132.0" y="369"/>
      <point x="1125.0" y="387" type="curve" smooth="yes"/>
      <point x="936.0" y="864" type="line" smooth="yes"/>
      <point x="927.0" y="888"/>
      <point x="925.0" y="900"/>
      <point x="900.0" y="900" type="curve" smooth="yes"/>
    </contour>
  </outline>
</glyph>
<glyph name="uni2B1B.semichevron_n" format="1">
  <advance width="1000"/>
  <outline>
    <contour>
      <point x="845.0" y="-180" type="line" smooth="yes"/>
      <point x="845.0" y="900" type="line"/>
      <point x="190.0" y="900" type="line" smooth="yes"/>
      <point x="165.0" y="900"/>
      <point x="146.0" y="884"/>
      <point x="162.0" y="844" type="curve" smooth="yes"/>
      <point x="354.0" y="360" type="line"/>
      <point x="160.0" y="-128" type="line" smooth="yes"/>
      <point x="146.0" y="-164"/>
      <point x="165.0" y="-180"/>
      <point x="190.0" y="-180" type="curve"/>
    </contour>
  </outline>
</glyph>
<glyph name="uni2B1B.semichevron_s" format="1">
  <advance width="1000"/>
  <outline>
    <contour>
      <point x="155.0" y="900" type="line" smooth="yes"/>
      <point x="155.0" y="-180" type="line"/>
      <point x="810.0" y="-180" type="line" smooth="yes"/>
      <point x="835.0" y="-180"/>
      <point x="854.0" y="-164"/>
      <point x="838.0" y="-124" type="curve" smooth="yes"/>
      <point x="646.0" y="360" type="line"/>
      <point x="840.0" y="848" type="line" smooth="yes"/>
      <point x="854.0" y="884"/>
      <point x="835.0" y="900"/>
      <point x="810.0" y="900" type="curve"/>
    </contour>
  </outline>
</glyph>
<glyph name="uni2B1B.trapezoid_w" format="1">
  <advance width="1000"/>
  <outline>
    <contour>
      <point x="1040.0" y="865" type="line" smooth="yes"/>
      <point x="1040.0" y="890"/>
      <point x="1029.0" y="901"/>
      <point x="1004.0" y="901" type="curve" smooth="yes"/>
      <point x="-4.0" y="901" type="line" smooth="yes"/>
      <point x="-29.0" y="901"/>
      <point x="-40.0" y="890"/>
      <point x="-40.0" y="865" type="curve" smooth="yes"/>
      <point x="-40.0" y="-243" type="line" smooth="yes"/>
      <point x="-40.0" y="-268"/>
      <point x="-29.0" y="-284"/>
      <point x="-4.0" y="-279" type="curve" smooth="yes"/>
      <point x="1004.0" y="-79" type="line" smooth="yes"/>
      <point x="1029.0" y="-74"/>
      <point x="1040.0" y="-68"/>
      <point x="1040.0" y="-43" type="curve" smooth="yes"/>
    </contour>
  </outline>
</glyph>
<glyph name="uni2B24.salt" format="1">
  <advance width="1000"/>
  <outline>
    <contour>
      <point x="-70.0" y="360" type="curve" smooth="yes"/>
      <point x="-70.0" y="156"/>
      <point x="10.0" y="-48"/>
      <point x="169.0" y="-180" type="curve"/>
      <point x="831.0" y="-180" type="line"/>
      <point x="989.0" y="-51"/>
      <point x="1070.0" y="156"/>
      <point x="1070.0" y="363" type="curve" smooth="yes"/>
      <point x="1070.0" y="568"/>
      <point x="991.0" y="772"/>
      <point x="831.0" y="900" type="curve"/>
      <point x="169.0" y="900" type="line"/>
      <point x="10.0" y="768"/>
      <point x="-70.0" y="564"/>
    </contour>
  </outline>
</glyph>
